<mxfile host="Electron" modified="2024-07-18T19:42:02.001Z" agent="Mozilla/5.0 (X11; Linux x86_64) AppleWebKit/537.36 (KHTML, like Gecko) draw.io/24.6.4 Chrome/124.0.6367.207 Electron/30.0.6 Safari/537.36" etag="imXyiLzo0rIHW4sD0xCG" version="24.6.4" type="device" pages="3">
  <diagram name="Page-1" id="-ccPMAedtg_zR_POOEQt">
    <mxGraphModel dx="3254" dy="2369" grid="1" gridSize="10" guides="1" tooltips="1" connect="1" arrows="1" fold="1" page="1" pageScale="1" pageWidth="827" pageHeight="1169" math="0" shadow="0">
      <root>
        <mxCell id="0" />
        <mxCell id="1" parent="0" />
        <mxCell id="BaqM9vHwG957v0Ft0RhW-3" value="" style="rounded=0;whiteSpace=wrap;html=1;fillColor=#f5f5f5;fontColor=#333333;strokeColor=#666666;" parent="1" vertex="1">
          <mxGeometry x="320" y="320" width="40" height="320" as="geometry" />
        </mxCell>
        <mxCell id="BaqM9vHwG957v0Ft0RhW-9" value="" style="rounded=0;whiteSpace=wrap;html=1;rotation=90;fillColor=#e1d5e7;strokeColor=#9673a6;" parent="1" vertex="1">
          <mxGeometry x="419.29" y="480.09" width="40" height="359.84" as="geometry" />
        </mxCell>
        <mxCell id="BaqM9vHwG957v0Ft0RhW-10" value="" style="rounded=0;whiteSpace=wrap;html=1;rotation=90;fillColor=#fff2cc;strokeColor=#d6b656;" parent="1" vertex="1">
          <mxGeometry x="435" y="311" width="10" height="159.84" as="geometry" />
        </mxCell>
        <mxCell id="BaqM9vHwG957v0Ft0RhW-23" value="" style="edgeStyle=orthogonalEdgeStyle;rounded=0;orthogonalLoop=1;jettySize=auto;html=1;" parent="1" source="BaqM9vHwG957v0Ft0RhW-11" edge="1">
          <mxGeometry relative="1" as="geometry">
            <mxPoint x="440" y="429" as="targetPoint" />
          </mxGeometry>
        </mxCell>
        <mxCell id="BaqM9vHwG957v0Ft0RhW-11" value="" style="ellipse;whiteSpace=wrap;html=1;" parent="1" vertex="1">
          <mxGeometry x="415" y="356" width="50" height="10" as="geometry" />
        </mxCell>
        <mxCell id="BaqM9vHwG957v0Ft0RhW-12" value="" style="shape=offPageConnector;whiteSpace=wrap;html=1;" parent="1" vertex="1">
          <mxGeometry x="420" y="376" width="40" height="80" as="geometry" />
        </mxCell>
        <mxCell id="BaqM9vHwG957v0Ft0RhW-13" value="" style="rounded=0;whiteSpace=wrap;html=1;rotation=0;" parent="1" vertex="1">
          <mxGeometry x="438.75" y="366" width="2.5" height="10" as="geometry" />
        </mxCell>
        <mxCell id="BaqM9vHwG957v0Ft0RhW-20" value="" style="ellipse;whiteSpace=wrap;html=1;align=center;aspect=fixed;fillColor=none;strokeColor=none;resizable=0;perimeter=centerPerimeter;rotatable=0;allowArrows=0;points=[];outlineConnect=1;" parent="1" vertex="1">
          <mxGeometry x="415" y="456" width="10" height="10" as="geometry" />
        </mxCell>
        <mxCell id="BaqM9vHwG957v0Ft0RhW-22" value="" style="ellipse;whiteSpace=wrap;html=1;align=center;aspect=fixed;fillColor=none;strokeColor=none;resizable=0;perimeter=centerPerimeter;rotatable=0;allowArrows=0;points=[];outlineConnect=1;" parent="1" vertex="1">
          <mxGeometry x="410" y="357" width="10" height="10" as="geometry" />
        </mxCell>
        <mxCell id="BaqM9vHwG957v0Ft0RhW-27" value="" style="endArrow=none;html=1;rounded=0;entryX=1;entryY=0.5;entryDx=0;entryDy=0;" parent="1" target="BaqM9vHwG957v0Ft0RhW-11" edge="1">
          <mxGeometry width="50" height="50" relative="1" as="geometry">
            <mxPoint x="440" y="361" as="sourcePoint" />
            <mxPoint x="440" y="356" as="targetPoint" />
          </mxGeometry>
        </mxCell>
        <mxCell id="BaqM9vHwG957v0Ft0RhW-29" value="" style="endArrow=none;html=1;rounded=0;" parent="1" edge="1">
          <mxGeometry width="50" height="50" relative="1" as="geometry">
            <mxPoint x="435" y="366" as="sourcePoint" />
            <mxPoint x="445" y="356" as="targetPoint" />
          </mxGeometry>
        </mxCell>
        <mxCell id="BaqM9vHwG957v0Ft0RhW-32" value="" style="rounded=0;whiteSpace=wrap;html=1;fillColor=#f5f5f5;fontColor=#333333;strokeColor=#666666;" parent="1" vertex="1">
          <mxGeometry x="1120" y="320" width="40" height="320" as="geometry" />
        </mxCell>
        <mxCell id="BaqM9vHwG957v0Ft0RhW-33" value="" style="rounded=0;whiteSpace=wrap;html=1;rotation=90;" parent="1" vertex="1">
          <mxGeometry x="1020" y="220" width="40" height="160" as="geometry" />
        </mxCell>
        <mxCell id="BaqM9vHwG957v0Ft0RhW-35" value="" style="rounded=0;whiteSpace=wrap;html=1;rotation=90;fillColor=#f03398;strokeColor=#A50040;fontColor=#ffffff;" parent="1" vertex="1">
          <mxGeometry x="920" y="280" width="40" height="40" as="geometry" />
        </mxCell>
        <mxCell id="BaqM9vHwG957v0Ft0RhW-37" value="" style="rounded=0;whiteSpace=wrap;html=1;rotation=90;fillColor=#f2369a;strokeColor=#A50040;fontColor=#ffffff;" parent="1" vertex="1">
          <mxGeometry x="1120" y="280" width="40" height="40" as="geometry" />
        </mxCell>
        <mxCell id="BaqM9vHwG957v0Ft0RhW-38" value="" style="rounded=0;whiteSpace=wrap;html=1;rotation=90;" parent="1" vertex="1">
          <mxGeometry x="1020" y="580.01" width="40" height="160" as="geometry" />
        </mxCell>
        <mxCell id="BaqM9vHwG957v0Ft0RhW-42" value="" style="endArrow=none;html=1;rounded=0;" parent="1" edge="1">
          <mxGeometry width="50" height="50" relative="1" as="geometry">
            <mxPoint x="1080" y="640" as="sourcePoint" />
            <mxPoint x="1120" y="600" as="targetPoint" />
          </mxGeometry>
        </mxCell>
        <mxCell id="BaqM9vHwG957v0Ft0RhW-43" value="" style="endArrow=none;html=1;rounded=0;entryX=1.025;entryY=0.872;entryDx=0;entryDy=0;entryPerimeter=0;exitX=0;exitY=0.75;exitDx=0;exitDy=0;" parent="1" source="BaqM9vHwG957v0Ft0RhW-38" edge="1">
          <mxGeometry width="50" height="50" relative="1" as="geometry">
            <mxPoint x="1020" y="650" as="sourcePoint" />
            <mxPoint x="961" y="599.0400000000002" as="targetPoint" />
          </mxGeometry>
        </mxCell>
        <mxCell id="BaqM9vHwG957v0Ft0RhW-44" value="" style="rounded=0;whiteSpace=wrap;html=1;rotation=90;fillColor=#e1d5e7;strokeColor=#9673a6;" parent="1" vertex="1">
          <mxGeometry x="420" y="-79.84000000000003" width="40" height="359.84" as="geometry" />
        </mxCell>
        <mxCell id="BaqM9vHwG957v0Ft0RhW-46" value="" style="rounded=0;whiteSpace=wrap;html=1;rotation=90;fillColor=#e1d5e7;strokeColor=#9673a6;" parent="1" vertex="1">
          <mxGeometry x="420" y="-280" width="40" height="359.84" as="geometry" />
        </mxCell>
        <mxCell id="BaqM9vHwG957v0Ft0RhW-47" value="" style="rounded=0;whiteSpace=wrap;html=1;" parent="1" vertex="1">
          <mxGeometry x="520" y="-79.84" width="40" height="159.84" as="geometry" />
        </mxCell>
        <mxCell id="BaqM9vHwG957v0Ft0RhW-48" value="" style="rounded=0;whiteSpace=wrap;html=1;" parent="1" vertex="1">
          <mxGeometry x="320" y="-80" width="40" height="159.84" as="geometry" />
        </mxCell>
        <mxCell id="BaqM9vHwG957v0Ft0RhW-61" value="" style="rounded=0;whiteSpace=wrap;html=1;" parent="1" vertex="1">
          <mxGeometry x="520" y="880" width="40" height="159.84" as="geometry" />
        </mxCell>
        <mxCell id="BaqM9vHwG957v0Ft0RhW-62" value="" style="rounded=0;whiteSpace=wrap;html=1;" parent="1" vertex="1">
          <mxGeometry x="320" y="880" width="40" height="159.84" as="geometry" />
        </mxCell>
        <mxCell id="BaqM9vHwG957v0Ft0RhW-67" value="" style="rounded=0;whiteSpace=wrap;html=1;rotation=90;fillColor=#e1d5e7;strokeColor=#9673a6;" parent="1" vertex="1">
          <mxGeometry x="419.29" y="680.01" width="40" height="359.84" as="geometry" />
        </mxCell>
        <mxCell id="BaqM9vHwG957v0Ft0RhW-68" value="" style="rounded=0;whiteSpace=wrap;html=1;rotation=90;fillColor=#e1d5e7;strokeColor=#9673a6;" parent="1" vertex="1">
          <mxGeometry x="420" y="880" width="40" height="359.84" as="geometry" />
        </mxCell>
        <mxCell id="BaqM9vHwG957v0Ft0RhW-69" value="" style="rounded=0;whiteSpace=wrap;html=1;rotation=90;fillColor=#fd2b9b;strokeColor=#A50040;fontColor=#ffffff;" parent="1" vertex="1">
          <mxGeometry x="420" y="739.93" width="40" height="240" as="geometry" />
        </mxCell>
        <mxCell id="BaqM9vHwG957v0Ft0RhW-72" value="" style="endArrow=none;html=1;rounded=0;" parent="1" edge="1">
          <mxGeometry width="50" height="50" relative="1" as="geometry">
            <mxPoint x="360" y="361" as="sourcePoint" />
            <mxPoint x="400" y="320" as="targetPoint" />
          </mxGeometry>
        </mxCell>
        <mxCell id="BaqM9vHwG957v0Ft0RhW-73" value="" style="endArrow=none;html=1;rounded=0;entryX=0.996;entryY=0.342;entryDx=0;entryDy=0;entryPerimeter=0;exitX=0.025;exitY=0.127;exitDx=0;exitDy=0;exitPerimeter=0;" parent="1" edge="1">
          <mxGeometry width="50" height="50" relative="1" as="geometry">
            <mxPoint x="521" y="360.6500000000001" as="sourcePoint" />
            <mxPoint x="477.9200000000001" y="319.8399999999999" as="targetPoint" />
          </mxGeometry>
        </mxCell>
        <mxCell id="BaqM9vHwG957v0Ft0RhW-74" value="" style="rounded=0;whiteSpace=wrap;html=1;fillColor=#f5f5f5;fontColor=#333333;strokeColor=#666666;" parent="1" vertex="1">
          <mxGeometry x="520" y="320.01" width="40" height="320" as="geometry" />
        </mxCell>
        <mxCell id="BaqM9vHwG957v0Ft0RhW-75" value="" style="rounded=0;whiteSpace=wrap;html=1;rotation=90;fillColor=#fd2b9b;strokeColor=#A50040;fontColor=#ffffff;" parent="1" vertex="1">
          <mxGeometry x="420" y="180" width="40" height="240" as="geometry" />
        </mxCell>
        <mxCell id="BaqM9vHwG957v0Ft0RhW-78" value="" style="endArrow=none;html=1;rounded=0;exitX=0.984;exitY=0.127;exitDx=0;exitDy=0;exitPerimeter=0;" parent="1" edge="1">
          <mxGeometry width="50" height="50" relative="1" as="geometry">
            <mxPoint x="959.3599999999999" y="360.6400000000001" as="sourcePoint" />
            <mxPoint x="1000" y="320" as="targetPoint" />
          </mxGeometry>
        </mxCell>
        <mxCell id="BaqM9vHwG957v0Ft0RhW-79" value="" style="rounded=0;whiteSpace=wrap;html=1;fillColor=#f5f5f5;fontColor=#333333;strokeColor=#666666;" parent="1" vertex="1">
          <mxGeometry x="920" y="320" width="40" height="320" as="geometry" />
        </mxCell>
        <mxCell id="BaqM9vHwG957v0Ft0RhW-80" value="" style="endArrow=none;html=1;rounded=0;exitX=-0.027;exitY=0.125;exitDx=0;exitDy=0;exitPerimeter=0;" parent="1" source="BaqM9vHwG957v0Ft0RhW-32" edge="1">
          <mxGeometry width="50" height="50" relative="1" as="geometry">
            <mxPoint x="1030" y="370.01" as="sourcePoint" />
            <mxPoint x="1080" y="320.01" as="targetPoint" />
          </mxGeometry>
        </mxCell>
        <mxCell id="BaqM9vHwG957v0Ft0RhW-81" value="" style="endArrow=none;html=1;rounded=0;entryX=1.002;entryY=0.667;entryDx=0;entryDy=0;entryPerimeter=0;exitX=1;exitY=0.25;exitDx=0;exitDy=0;" parent="1" source="BaqM9vHwG957v0Ft0RhW-62" target="BaqM9vHwG957v0Ft0RhW-69" edge="1">
          <mxGeometry width="50" height="50" relative="1" as="geometry">
            <mxPoint x="510" y="1090" as="sourcePoint" />
            <mxPoint x="560" y="1040" as="targetPoint" />
            <Array as="points" />
          </mxGeometry>
        </mxCell>
        <mxCell id="BaqM9vHwG957v0Ft0RhW-82" value="" style="endArrow=none;html=1;rounded=0;exitX=0;exitY=0.25;exitDx=0;exitDy=0;" parent="1" source="BaqM9vHwG957v0Ft0RhW-61" edge="1">
          <mxGeometry width="50" height="50" relative="1" as="geometry">
            <mxPoint x="431" y="930" as="sourcePoint" />
            <mxPoint x="481" y="880" as="targetPoint" />
          </mxGeometry>
        </mxCell>
        <mxCell id="BaqM9vHwG957v0Ft0RhW-83" value="" style="endArrow=none;html=1;rounded=0;" parent="1" edge="1">
          <mxGeometry width="50" height="50" relative="1" as="geometry">
            <mxPoint x="360" y="1000" as="sourcePoint" />
            <mxPoint x="400" y="1040" as="targetPoint" />
          </mxGeometry>
        </mxCell>
        <mxCell id="BaqM9vHwG957v0Ft0RhW-84" value="" style="rounded=0;whiteSpace=wrap;html=1;rotation=90;fillColor=#fd2b9b;strokeColor=#A50040;fontColor=#ffffff;" parent="1" vertex="1">
          <mxGeometry x="420" y="939.92" width="40" height="240" as="geometry" />
        </mxCell>
        <mxCell id="BaqM9vHwG957v0Ft0RhW-85" value="" style="endArrow=none;html=1;rounded=0;" parent="1" edge="1">
          <mxGeometry width="50" height="50" relative="1" as="geometry">
            <mxPoint x="480" y="1039.84" as="sourcePoint" />
            <mxPoint x="520" y="1000" as="targetPoint" />
          </mxGeometry>
        </mxCell>
        <mxCell id="BaqM9vHwG957v0Ft0RhW-86" value="" style="endArrow=none;html=1;rounded=0;exitX=1;exitY=0.25;exitDx=0;exitDy=0;" parent="1" source="BaqM9vHwG957v0Ft0RhW-48" edge="1">
          <mxGeometry width="50" height="50" relative="1" as="geometry">
            <mxPoint x="350" y="-30" as="sourcePoint" />
            <mxPoint x="400" y="-80" as="targetPoint" />
          </mxGeometry>
        </mxCell>
        <mxCell id="BaqM9vHwG957v0Ft0RhW-87" value="" style="endArrow=none;html=1;rounded=0;entryX=1;entryY=0.75;entryDx=0;entryDy=0;" parent="1" target="BaqM9vHwG957v0Ft0RhW-48" edge="1">
          <mxGeometry width="50" height="50" relative="1" as="geometry">
            <mxPoint x="400" y="79.84" as="sourcePoint" />
            <mxPoint x="450" y="29.84" as="targetPoint" />
          </mxGeometry>
        </mxCell>
        <mxCell id="BaqM9vHwG957v0Ft0RhW-88" value="" style="endArrow=none;html=1;rounded=0;entryX=0;entryY=0.75;entryDx=0;entryDy=0;" parent="1" target="BaqM9vHwG957v0Ft0RhW-47" edge="1">
          <mxGeometry width="50" height="50" relative="1" as="geometry">
            <mxPoint x="480" y="80" as="sourcePoint" />
            <mxPoint x="530" y="30" as="targetPoint" />
          </mxGeometry>
        </mxCell>
        <mxCell id="BaqM9vHwG957v0Ft0RhW-89" value="" style="endArrow=none;html=1;rounded=0;exitX=0;exitY=0.25;exitDx=0;exitDy=0;" parent="1" source="BaqM9vHwG957v0Ft0RhW-47" edge="1">
          <mxGeometry width="50" height="50" relative="1" as="geometry">
            <mxPoint x="450" y="-10" as="sourcePoint" />
            <mxPoint x="480" y="-80" as="targetPoint" />
          </mxGeometry>
        </mxCell>
        <mxCell id="BaqM9vHwG957v0Ft0RhW-96" value="" style="endArrow=none;dashed=1;html=1;rounded=0;strokeWidth=1;" parent="1" edge="1">
          <mxGeometry width="50" height="50" relative="1" as="geometry">
            <mxPoint x="-130" y="280.53" as="sourcePoint" />
            <mxPoint x="320" y="280.4599999999999" as="targetPoint" />
          </mxGeometry>
        </mxCell>
        <mxCell id="BaqM9vHwG957v0Ft0RhW-97" value="" style="endArrow=none;dashed=1;html=1;rounded=0;strokeWidth=1;" parent="1" edge="1">
          <mxGeometry width="50" height="50" relative="1" as="geometry">
            <mxPoint y="319" as="sourcePoint" />
            <mxPoint x="320" y="319.38999999999993" as="targetPoint" />
          </mxGeometry>
        </mxCell>
        <mxCell id="BaqM9vHwG957v0Ft0RhW-98" value="" style="endArrow=none;dashed=1;html=1;rounded=0;strokeWidth=1;" parent="1" edge="1">
          <mxGeometry width="50" height="50" relative="1" as="geometry">
            <mxPoint y="640" as="sourcePoint" />
            <mxPoint x="260" y="640.01" as="targetPoint" />
          </mxGeometry>
        </mxCell>
        <mxCell id="BaqM9vHwG957v0Ft0RhW-99" value="" style="endArrow=none;dashed=1;html=1;rounded=0;strokeWidth=1;" parent="1" edge="1">
          <mxGeometry width="50" height="50" relative="1" as="geometry">
            <mxPoint x="-130" y="679.3" as="sourcePoint" />
            <mxPoint x="260" y="679.31" as="targetPoint" />
          </mxGeometry>
        </mxCell>
        <mxCell id="BaqM9vHwG957v0Ft0RhW-100" value="" style="endArrow=none;dashed=1;html=1;rounded=0;strokeWidth=1;" parent="1" edge="1">
          <mxGeometry width="50" height="50" relative="1" as="geometry">
            <mxPoint x="160" y="396" as="sourcePoint" />
            <mxPoint x="363" y="395.55999999999995" as="targetPoint" />
          </mxGeometry>
        </mxCell>
        <mxCell id="BaqM9vHwG957v0Ft0RhW-101" value="" style="endArrow=none;dashed=1;html=1;rounded=0;strokeWidth=1;" parent="1" edge="1">
          <mxGeometry width="50" height="50" relative="1" as="geometry">
            <mxPoint x="160" y="386" as="sourcePoint" />
            <mxPoint x="362" y="385.99999999999994" as="targetPoint" />
          </mxGeometry>
        </mxCell>
        <mxCell id="BaqM9vHwG957v0Ft0RhW-108" value="" style="endArrow=classic;startArrow=classic;html=1;rounded=0;" parent="1" edge="1">
          <mxGeometry width="50" height="50" relative="1" as="geometry">
            <mxPoint x="-80" y="680" as="sourcePoint" />
            <mxPoint x="-80" y="280" as="targetPoint" />
          </mxGeometry>
        </mxCell>
        <mxCell id="BaqM9vHwG957v0Ft0RhW-114" value="" style="endArrow=classic;html=1;rounded=0;" parent="1" edge="1">
          <mxGeometry width="50" height="50" relative="1" as="geometry">
            <mxPoint x="-80" y="720" as="sourcePoint" />
            <mxPoint x="-80" y="680" as="targetPoint" />
          </mxGeometry>
        </mxCell>
        <mxCell id="BaqM9vHwG957v0Ft0RhW-116" value="&lt;font style=&quot;vertical-align: inherit;&quot;&gt;&lt;font style=&quot;vertical-align: inherit;&quot;&gt;737 mm&lt;/font&gt;&lt;/font&gt;" style="whiteSpace=wrap;html=1;strokeColor=none;" parent="1" vertex="1">
          <mxGeometry x="-126" y="233" width="50" height="20" as="geometry" />
        </mxCell>
        <mxCell id="BaqM9vHwG957v0Ft0RhW-118" value="&lt;font style=&quot;vertical-align: inherit;&quot;&gt;&lt;font style=&quot;vertical-align: inherit;&quot;&gt;647 mm&lt;/font&gt;&lt;/font&gt;" style="whiteSpace=wrap;html=1;strokeColor=none;rotation=-90;" parent="1" vertex="1">
          <mxGeometry x="-13" y="470.84" width="50" height="20" as="geometry" />
        </mxCell>
        <mxCell id="BaqM9vHwG957v0Ft0RhW-122" value="" style="endArrow=none;html=1;rounded=0;" parent="1" edge="1">
          <mxGeometry width="50" height="50" relative="1" as="geometry">
            <mxPoint x="190" y="400" as="sourcePoint" />
            <mxPoint x="190" y="360" as="targetPoint" />
          </mxGeometry>
        </mxCell>
        <mxCell id="BaqM9vHwG957v0Ft0RhW-123" value="" style="endArrow=classic;html=1;rounded=0;" parent="1" edge="1">
          <mxGeometry width="50" height="50" relative="1" as="geometry">
            <mxPoint x="190" y="410" as="sourcePoint" />
            <mxPoint x="190" y="396" as="targetPoint" />
          </mxGeometry>
        </mxCell>
        <mxCell id="BaqM9vHwG957v0Ft0RhW-125" value="&lt;font style=&quot;vertical-align: inherit;&quot;&gt;&lt;font style=&quot;vertical-align: inherit;&quot;&gt;30 mm&lt;/font&gt;&lt;/font&gt;" style="whiteSpace=wrap;html=1;strokeColor=none;" parent="1" vertex="1">
          <mxGeometry x="145" y="340" width="50" height="20" as="geometry" />
        </mxCell>
        <mxCell id="BaqM9vHwG957v0Ft0RhW-126" value="" style="endArrow=classic;html=1;rounded=0;" parent="1" edge="1">
          <mxGeometry width="50" height="50" relative="1" as="geometry">
            <mxPoint x="150" y="356" as="sourcePoint" />
            <mxPoint x="190" y="386" as="targetPoint" />
            <Array as="points">
              <mxPoint x="190" y="356" />
            </Array>
          </mxGeometry>
        </mxCell>
        <mxCell id="BaqM9vHwG957v0Ft0RhW-127" value="" style="endArrow=classic;startArrow=classic;html=1;rounded=0;" parent="1" edge="1">
          <mxGeometry width="50" height="50" relative="1" as="geometry">
            <mxPoint x="20" y="640" as="sourcePoint" />
            <mxPoint x="20" y="320" as="targetPoint" />
          </mxGeometry>
        </mxCell>
        <mxCell id="BaqM9vHwG957v0Ft0RhW-128" value="" style="endArrow=classic;html=1;rounded=0;" parent="1" edge="1">
          <mxGeometry width="50" height="50" relative="1" as="geometry">
            <mxPoint x="-120" y="250" as="sourcePoint" />
            <mxPoint x="-80" y="280" as="targetPoint" />
            <Array as="points">
              <mxPoint x="-80" y="250" />
            </Array>
          </mxGeometry>
        </mxCell>
        <mxCell id="BaqM9vHwG957v0Ft0RhW-129" value="" style="endArrow=classic;startArrow=classic;html=1;rounded=0;" parent="1" edge="1">
          <mxGeometry width="50" height="50" relative="1" as="geometry">
            <mxPoint x="110" y="320" as="sourcePoint" />
            <mxPoint x="110" y="280" as="targetPoint" />
          </mxGeometry>
        </mxCell>
        <mxCell id="BaqM9vHwG957v0Ft0RhW-130" value="" style="endArrow=classic;html=1;rounded=0;" parent="1" edge="1">
          <mxGeometry width="50" height="50" relative="1" as="geometry">
            <mxPoint x="110" y="340" as="sourcePoint" />
            <mxPoint x="110" y="320" as="targetPoint" />
          </mxGeometry>
        </mxCell>
        <mxCell id="BaqM9vHwG957v0Ft0RhW-132" value="&lt;font style=&quot;vertical-align: inherit;&quot;&gt;&lt;font style=&quot;vertical-align: inherit;&quot;&gt;45 mm&lt;/font&gt;&lt;/font&gt;" style="whiteSpace=wrap;html=1;strokeColor=none;" parent="1" vertex="1">
          <mxGeometry x="107" y="234" width="50" height="20" as="geometry" />
        </mxCell>
        <mxCell id="BaqM9vHwG957v0Ft0RhW-135" value="" style="endArrow=classic;html=1;rounded=0;" parent="1" edge="1">
          <mxGeometry width="50" height="50" relative="1" as="geometry">
            <mxPoint x="150" y="250" as="sourcePoint" />
            <mxPoint x="110" y="280" as="targetPoint" />
            <Array as="points">
              <mxPoint x="110" y="250" />
            </Array>
          </mxGeometry>
        </mxCell>
        <mxCell id="BaqM9vHwG957v0Ft0RhW-136" value="" style="endArrow=classic;startArrow=classic;html=1;rounded=0;" parent="1" edge="1">
          <mxGeometry width="50" height="50" relative="1" as="geometry">
            <mxPoint x="270" y="380" as="sourcePoint" />
            <mxPoint x="270" y="320" as="targetPoint" />
          </mxGeometry>
        </mxCell>
        <mxCell id="BaqM9vHwG957v0Ft0RhW-137" value="&lt;font style=&quot;vertical-align: inherit;&quot;&gt;&lt;font style=&quot;vertical-align: inherit;&quot;&gt;46 mm&lt;/font&gt;&lt;/font&gt;" style="whiteSpace=wrap;html=1;strokeColor=none;rotation=-90;" parent="1" vertex="1">
          <mxGeometry x="230" y="340" width="50" height="20" as="geometry" />
        </mxCell>
        <mxCell id="BaqM9vHwG957v0Ft0RhW-140" value="" style="endArrow=none;dashed=1;html=1;rounded=0;" parent="1" edge="1">
          <mxGeometry width="50" height="50" relative="1" as="geometry">
            <mxPoint x="260" y="750" as="sourcePoint" />
            <mxPoint x="260" y="680.01" as="targetPoint" />
          </mxGeometry>
        </mxCell>
        <mxCell id="BaqM9vHwG957v0Ft0RhW-141" value="" style="endArrow=none;dashed=1;html=1;rounded=0;" parent="1" edge="1">
          <mxGeometry width="50" height="50" relative="1" as="geometry">
            <mxPoint x="620" y="750" as="sourcePoint" />
            <mxPoint x="620" y="680.01" as="targetPoint" />
          </mxGeometry>
        </mxCell>
        <mxCell id="BaqM9vHwG957v0Ft0RhW-144" value="&lt;font style=&quot;vertical-align: inherit;&quot;&gt;&lt;font style=&quot;vertical-align: inherit;&quot;&gt;485 mm&lt;/font&gt;&lt;/font&gt;" style="whiteSpace=wrap;html=1;strokeColor=none;rotation=0;" parent="1" vertex="1">
          <mxGeometry x="414" y="720.0100000000001" width="50" height="20" as="geometry" />
        </mxCell>
        <mxCell id="BaqM9vHwG957v0Ft0RhW-146" value="" style="endArrow=classic;startArrow=classic;html=1;rounded=0;" parent="1" edge="1">
          <mxGeometry width="50" height="50" relative="1" as="geometry">
            <mxPoint x="260" y="720" as="sourcePoint" />
            <mxPoint x="620" y="720" as="targetPoint" />
          </mxGeometry>
        </mxCell>
        <mxCell id="BaqM9vHwG957v0Ft0RhW-147" value="" style="endArrow=none;dashed=1;html=1;rounded=0;" parent="1" edge="1">
          <mxGeometry width="50" height="50" relative="1" as="geometry">
            <mxPoint x="959.89" y="280" as="sourcePoint" />
            <mxPoint x="960" y="250" as="targetPoint" />
          </mxGeometry>
        </mxCell>
        <mxCell id="BaqM9vHwG957v0Ft0RhW-148" value="" style="endArrow=none;dashed=1;html=1;rounded=0;" parent="1" edge="1">
          <mxGeometry width="50" height="50" relative="1" as="geometry">
            <mxPoint x="1120" y="280" as="sourcePoint" />
            <mxPoint x="1120" y="252" as="targetPoint" />
          </mxGeometry>
        </mxCell>
        <mxCell id="BaqM9vHwG957v0Ft0RhW-150" value="&lt;font style=&quot;vertical-align: inherit;&quot;&gt;&lt;font style=&quot;vertical-align: inherit;&quot;&gt;23 mm&lt;/font&gt;&lt;/font&gt;" style="whiteSpace=wrap;html=1;strokeColor=none;" parent="1" vertex="1">
          <mxGeometry x="1020" y="243" width="50" height="20" as="geometry" />
        </mxCell>
        <mxCell id="BaqM9vHwG957v0Ft0RhW-151" value="" style="endArrow=classic;startArrow=classic;html=1;rounded=0;" parent="1" edge="1">
          <mxGeometry width="50" height="50" relative="1" as="geometry">
            <mxPoint x="960" y="263" as="sourcePoint" />
            <mxPoint x="1120" y="263" as="targetPoint" />
          </mxGeometry>
        </mxCell>
        <mxCell id="BaqM9vHwG957v0Ft0RhW-152" value="" style="endArrow=none;dashed=1;html=1;rounded=0;" parent="1" edge="1">
          <mxGeometry width="50" height="50" relative="1" as="geometry">
            <mxPoint x="919.6899999999999" y="280" as="sourcePoint" />
            <mxPoint x="920" y="210" as="targetPoint" />
          </mxGeometry>
        </mxCell>
        <mxCell id="BaqM9vHwG957v0Ft0RhW-153" value="" style="endArrow=none;dashed=1;html=1;rounded=0;" parent="1" edge="1">
          <mxGeometry width="50" height="50" relative="1" as="geometry">
            <mxPoint x="1159.69" y="279" as="sourcePoint" />
            <mxPoint x="1160" y="209" as="targetPoint" />
          </mxGeometry>
        </mxCell>
        <mxCell id="BaqM9vHwG957v0Ft0RhW-155" value="&lt;font style=&quot;vertical-align: inherit;&quot;&gt;&lt;font style=&quot;vertical-align: inherit;&quot;&gt;32 mm&lt;/font&gt;&lt;/font&gt;" style="whiteSpace=wrap;html=1;strokeColor=none;" parent="1" vertex="1">
          <mxGeometry x="1020" y="200" width="50" height="20" as="geometry" />
        </mxCell>
        <mxCell id="BaqM9vHwG957v0Ft0RhW-156" value="" style="endArrow=classic;startArrow=classic;html=1;rounded=0;" parent="1" edge="1">
          <mxGeometry width="50" height="50" relative="1" as="geometry">
            <mxPoint x="920" y="220" as="sourcePoint" />
            <mxPoint x="1160" y="220" as="targetPoint" />
          </mxGeometry>
        </mxCell>
        <mxCell id="BaqM9vHwG957v0Ft0RhW-157" value="" style="rounded=0;whiteSpace=wrap;html=1;rotation=90;fillColor=#e1d5e7;strokeColor=#9673a6;" parent="1" vertex="1">
          <mxGeometry x="919.9999999999999" y="640.08" width="40" height="40" as="geometry" />
        </mxCell>
        <mxCell id="BaqM9vHwG957v0Ft0RhW-158" value="" style="rounded=0;whiteSpace=wrap;html=1;rotation=90;fillColor=#e1d5e7;strokeColor=#9673a6;" parent="1" vertex="1">
          <mxGeometry x="1120" y="640.08" width="40" height="40" as="geometry" />
        </mxCell>
      </root>
    </mxGraphModel>
  </diagram>
  <diagram id="yrDQCcz6FklVns1l4hxs" name="Page-2">
    <mxGraphModel dx="4733" dy="14543" grid="1" gridSize="10" guides="1" tooltips="1" connect="1" arrows="1" fold="1" page="1" pageScale="10" pageWidth="827" pageHeight="1169" math="0" shadow="0">
      <root>
        <mxCell id="0" />
        <mxCell id="1" parent="0" />
        <mxCell id="_wKfJnMXufy9OSYzwLOB-1" value="" style="rounded=0;whiteSpace=wrap;html=1;strokeWidth=1.9685;fillColor=#ffe6cc;strokeColor=#000000;" parent="1" vertex="1">
          <mxGeometry x="1520" y="2282" width="1909.445" height="196.85" as="geometry" />
        </mxCell>
        <mxCell id="eBsM5VfQi9ntAilk2qK4-1" value="" style="rounded=0;whiteSpace=wrap;html=1;fillColor=#eeeeee;strokeColor=#000000;strokeWidth=1.9685;rotation=90;" parent="1" vertex="1">
          <mxGeometry x="580" y="907" width="2547.239" height="196.85" as="geometry" />
        </mxCell>
        <mxCell id="uWtOYkLfuZIWyKlLt-DD-1" value="" style="endArrow=classic;html=1;rounded=0;strokeWidth=0.3937;startArrow=classic;startFill=1;endFill=1;" parent="1" edge="1">
          <mxGeometry width="50" height="50" relative="1" as="geometry">
            <mxPoint x="160" y="360" as="sourcePoint" />
            <mxPoint x="350" y="360" as="targetPoint" />
          </mxGeometry>
        </mxCell>
        <mxCell id="6ZpmU-QV22XDeHHqlk24-1" value="&amp;nbsp;485 mm&amp;nbsp;" style="edgeLabel;html=1;align=center;verticalAlign=middle;resizable=0;points=[];" parent="uWtOYkLfuZIWyKlLt-DD-1" vertex="1" connectable="0">
          <mxGeometry x="0.0704" y="1" relative="1" as="geometry">
            <mxPoint as="offset" />
          </mxGeometry>
        </mxCell>
        <mxCell id="Tlt8KBTm_dauW5Jrhntg-4" value="" style="endArrow=none;dashed=1;html=1;rounded=0;strokeWidth=0.3937;" parent="1" edge="1">
          <mxGeometry width="50" height="50" relative="1" as="geometry">
            <mxPoint x="350.94" y="367" as="sourcePoint" />
            <mxPoint x="350.94" y="330" as="targetPoint" />
          </mxGeometry>
        </mxCell>
        <mxCell id="E61BUYMeAfEl7oUqTAVj-1" value="" style="endArrow=none;dashed=1;html=1;rounded=0;strokeWidth=0.3937;" parent="1" edge="1">
          <mxGeometry width="50" height="50" relative="1" as="geometry">
            <mxPoint x="160" y="367" as="sourcePoint" />
            <mxPoint x="160" y="330" as="targetPoint" />
          </mxGeometry>
        </mxCell>
        <mxCell id="v7mMSHf6wGSPoZFobr1p-5" value="" style="rounded=0;whiteSpace=wrap;html=1;fillColor=#eeeeee;strokeColor=#000000;strokeWidth=1.9685;rotation=90;" parent="1" vertex="1">
          <mxGeometry x="1910" y="910" width="2547" height="196.85" as="geometry" />
        </mxCell>
        <mxCell id="v7mMSHf6wGSPoZFobr1p-6" value="" style="endArrow=classic;html=1;rounded=0;startArrow=classic;startFill=1;endFill=1;strokeWidth=3.1496;endSize=31.496;startSize=31.496;" parent="1" edge="1">
          <mxGeometry width="50" height="50" relative="1" as="geometry">
            <mxPoint x="1521" y="2600" as="sourcePoint" />
            <mxPoint x="3441" y="2600" as="targetPoint" />
          </mxGeometry>
        </mxCell>
        <mxCell id="msb4VQ4w1w4fBE5w5Lwh-1" value="&amp;nbsp;485 mm&amp;nbsp;" style="edgeLabel;html=1;align=center;verticalAlign=middle;resizable=0;points=[];fontSize=70;" parent="v7mMSHf6wGSPoZFobr1p-6" vertex="1" connectable="0">
          <mxGeometry x="0.0066" relative="1" as="geometry">
            <mxPoint as="offset" />
          </mxGeometry>
        </mxCell>
        <mxCell id="EOdHdvKMws2YcOre3uUc-1" value="" style="endArrow=classic;html=1;rounded=0;startArrow=classic;startFill=1;endFill=1;strokeWidth=3.1496;endSize=31.496;startSize=31.496;" parent="1" edge="1">
          <mxGeometry width="50" height="50" relative="1" as="geometry">
            <mxPoint x="1200" y="2480" as="sourcePoint" />
            <mxPoint x="1200" y="-270" as="targetPoint" />
          </mxGeometry>
        </mxCell>
        <mxCell id="EOdHdvKMws2YcOre3uUc-2" value="&amp;nbsp;485 mm&amp;nbsp;" style="edgeLabel;html=1;align=center;verticalAlign=middle;resizable=0;points=[];fontSize=70;" parent="EOdHdvKMws2YcOre3uUc-1" vertex="1" connectable="0">
          <mxGeometry x="0.0066" relative="1" as="geometry">
            <mxPoint as="offset" />
          </mxGeometry>
        </mxCell>
        <mxCell id="XQ3aAQMJMu4HlCgwAhRa-1" value="" style="endArrow=none;html=1;rounded=0;strokeWidth=3.1496;entryX=0;entryY=1;entryDx=0;entryDy=0;dashed=1;" parent="1" target="_wKfJnMXufy9OSYzwLOB-1" edge="1">
          <mxGeometry width="50" height="50" relative="1" as="geometry">
            <mxPoint x="1110" y="2480" as="sourcePoint" />
            <mxPoint x="1550" y="1560" as="targetPoint" />
          </mxGeometry>
        </mxCell>
        <mxCell id="XQ3aAQMJMu4HlCgwAhRa-2" value="" style="endArrow=none;html=1;rounded=0;strokeWidth=3.1496;entryX=0;entryY=1;entryDx=0;entryDy=0;dashed=1;" parent="1" target="eBsM5VfQi9ntAilk2qK4-1" edge="1">
          <mxGeometry width="50" height="50" relative="1" as="geometry">
            <mxPoint x="1120" y="-268" as="sourcePoint" />
            <mxPoint x="1710" y="-260" as="targetPoint" />
          </mxGeometry>
        </mxCell>
        <mxCell id="XQ3aAQMJMu4HlCgwAhRa-3" value="" style="endArrow=none;html=1;rounded=0;strokeWidth=3.1496;entryX=0;entryY=1;entryDx=0;entryDy=0;dashed=1;" parent="1" target="_wKfJnMXufy9OSYzwLOB-1" edge="1">
          <mxGeometry width="50" height="50" relative="1" as="geometry">
            <mxPoint x="1520" y="2600" as="sourcePoint" />
            <mxPoint x="1610" y="2489" as="targetPoint" />
          </mxGeometry>
        </mxCell>
        <mxCell id="XQ3aAQMJMu4HlCgwAhRa-4" value="" style="endArrow=none;html=1;rounded=0;strokeWidth=3.1496;entryX=0;entryY=1;entryDx=0;entryDy=0;dashed=1;" parent="1" edge="1">
          <mxGeometry width="50" height="50" relative="1" as="geometry">
            <mxPoint x="3431" y="2640" as="sourcePoint" />
            <mxPoint x="3430.45" y="2478.85" as="targetPoint" />
          </mxGeometry>
        </mxCell>
        <mxCell id="nDttgDo3zoWnSv51Xcox-1" value="" style="rounded=0;whiteSpace=wrap;html=1;rotation=90;fillColor=#e1d5e7;strokeColor=#9673a6;" parent="1" vertex="1">
          <mxGeometry x="2200" y="1720" width="127.56" height="1374.80525" as="geometry" />
        </mxCell>
        <mxCell id="L1bO6l6GJDHzd7G1M5hT-81" value="" style="rounded=0;whiteSpace=wrap;html=1;fillColor=#f5f5f5;fontColor=#333333;strokeColor=#666666;" parent="1" vertex="1">
          <mxGeometry x="4975" y="271" width="127.56" height="1834.01855" as="geometry" />
        </mxCell>
        <mxCell id="L1bO6l6GJDHzd7G1M5hT-82" value="" style="rounded=0;whiteSpace=wrap;html=1;rotation=90;fillColor=#e1d5e7;strokeColor=#9673a6;" parent="1" vertex="1">
          <mxGeometry x="5364" y="1483" width="127.56" height="1374.80525" as="geometry" />
        </mxCell>
        <mxCell id="L1bO6l6GJDHzd7G1M5hT-83" value="" style="rounded=0;whiteSpace=wrap;html=1;rotation=90;fillColor=#fff2cc;strokeColor=#d6b656;" parent="1" vertex="1">
          <mxGeometry x="5386" y="164" width="85" height="651.9694999999999" as="geometry" />
        </mxCell>
        <mxCell id="L1bO6l6GJDHzd7G1M5hT-84" value="" style="rounded=0;whiteSpace=wrap;html=1;rotation=90;fillColor=#e1d5e7;strokeColor=#9673a6;" parent="1" vertex="1">
          <mxGeometry x="5364" y="-1229" width="127.56" height="1374.80525" as="geometry" />
        </mxCell>
        <mxCell id="L1bO6l6GJDHzd7G1M5hT-85" value="" style="rounded=0;whiteSpace=wrap;html=1;" parent="1" vertex="1">
          <mxGeometry x="5753" y="-1258" width="127.56" height="651.9694999999999" as="geometry" />
        </mxCell>
        <mxCell id="L1bO6l6GJDHzd7G1M5hT-86" value="" style="rounded=0;whiteSpace=wrap;html=1;rotation=90;fillColor=#fd2b9b;strokeColor=#A50040;fontColor=#ffffff;" parent="1" vertex="1">
          <mxGeometry x="5364" y="-247.00000000000006" width="127.56" height="907.088" as="geometry" />
        </mxCell>
        <mxCell id="L1bO6l6GJDHzd7G1M5hT-87" value="" style="rounded=0;whiteSpace=wrap;html=1;fillColor=#f5f5f5;fontColor=#333333;strokeColor=#666666;" parent="1" vertex="1">
          <mxGeometry x="5753" y="271" width="127.56" height="1834.01855" as="geometry" />
        </mxCell>
        <mxCell id="L1bO6l6GJDHzd7G1M5hT-88" value="" style="rounded=0;whiteSpace=wrap;html=1;" parent="1" vertex="1">
          <mxGeometry x="4975" y="-1258" width="127.56" height="651.9694999999999" as="geometry" />
        </mxCell>
        <mxCell id="L1bO6l6GJDHzd7G1M5hT-89" value="" style="rounded=0;whiteSpace=wrap;html=1;rotation=90;fillColor=#e1d5e7;strokeColor=#9673a6;" parent="1" vertex="1">
          <mxGeometry x="5364" y="-2010" width="127.56" height="1374.80525" as="geometry" />
        </mxCell>
        <mxCell id="L1bO6l6GJDHzd7G1M5hT-90" value="" style="rounded=0;whiteSpace=wrap;html=1;rotation=90;" parent="1" vertex="1">
          <mxGeometry x="7490" y="-119.44" width="127.56" height="651.9694999999999" as="geometry" />
        </mxCell>
        <mxCell id="L1bO6l6GJDHzd7G1M5hT-91" value="" style="rounded=0;whiteSpace=wrap;html=1;fillColor=#f5f5f5;fontColor=#333333;strokeColor=#666666;" parent="1" vertex="1">
          <mxGeometry x="7100" y="270" width="127.56" height="1834.01855" as="geometry" />
        </mxCell>
        <mxCell id="L1bO6l6GJDHzd7G1M5hT-92" value="" style="rounded=0;whiteSpace=wrap;html=1;fillColor=#f5f5f5;fontColor=#333333;strokeColor=#666666;" parent="1" vertex="1">
          <mxGeometry x="7880" y="270" width="127.56" height="1834.01855" as="geometry" />
        </mxCell>
        <mxCell id="L1bO6l6GJDHzd7G1M5hT-93" value="" style="rounded=0;whiteSpace=wrap;html=1;rotation=90;" parent="1" vertex="1">
          <mxGeometry x="7490" y="1842" width="127.56" height="651.9694999999999" as="geometry" />
        </mxCell>
        <mxCell id="L1bO6l6GJDHzd7G1M5hT-94" value="" style="rounded=0;whiteSpace=wrap;html=1;rotation=90;fillColor=#f2369a;strokeColor=#A50040;fontColor=#ffffff;" parent="1" vertex="1">
          <mxGeometry x="7880" y="142.7600000000001" width="127.56" height="127.56" as="geometry" />
        </mxCell>
        <mxCell id="L1bO6l6GJDHzd7G1M5hT-95" value="" style="rounded=0;whiteSpace=wrap;html=1;rotation=90;fillColor=#f2369a;strokeColor=#A50040;fontColor=#ffffff;" parent="1" vertex="1">
          <mxGeometry x="7100" y="142.7600000000001" width="127.56" height="127.56" as="geometry" />
        </mxCell>
        <mxCell id="L1bO6l6GJDHzd7G1M5hT-96" value="" style="rounded=0;whiteSpace=wrap;html=1;rotation=90;fillColor=#f2369a;strokeColor=#A50040;fontColor=#ffffff;" parent="1" vertex="1">
          <mxGeometry x="7880" y="2104.02" width="127.56" height="127.56" as="geometry" />
        </mxCell>
        <mxCell id="L1bO6l6GJDHzd7G1M5hT-97" value="" style="rounded=0;whiteSpace=wrap;html=1;rotation=90;fillColor=#f2369a;strokeColor=#A50040;fontColor=#ffffff;" parent="1" vertex="1">
          <mxGeometry x="7100" y="2104.02" width="127.56" height="127.56" as="geometry" />
        </mxCell>
        <mxCell id="L1bO6l6GJDHzd7G1M5hT-98" value="" style="rounded=0;whiteSpace=wrap;html=1;rotation=90;fillColor=#fd2b9b;strokeColor=#A50040;fontColor=#ffffff;" parent="1" vertex="1">
          <mxGeometry x="5364" y="2477" width="127.56" height="907.088" as="geometry" />
        </mxCell>
        <mxCell id="L1bO6l6GJDHzd7G1M5hT-99" value="" style="rounded=0;whiteSpace=wrap;html=1;rotation=90;fillColor=#fd2b9b;strokeColor=#A50040;fontColor=#ffffff;" parent="1" vertex="1">
          <mxGeometry x="5364" y="3256" width="127.56" height="907.088" as="geometry" />
        </mxCell>
        <mxCell id="L1bO6l6GJDHzd7G1M5hT-100" value="" style="rounded=0;whiteSpace=wrap;html=1;" parent="1" vertex="1">
          <mxGeometry x="5754" y="2994" width="127.56" height="651.9694999999999" as="geometry" />
        </mxCell>
        <mxCell id="L1bO6l6GJDHzd7G1M5hT-101" value="" style="rounded=0;whiteSpace=wrap;html=1;" parent="1" vertex="1">
          <mxGeometry x="4974" y="2994" width="127.56" height="651.9694999999999" as="geometry" />
        </mxCell>
        <mxCell id="L1bO6l6GJDHzd7G1M5hT-102" value="" style="rounded=0;whiteSpace=wrap;html=1;rotation=90;fillColor=#e1d5e7;strokeColor=#9673a6;" parent="1" vertex="1">
          <mxGeometry x="5934" y="2814.04" width="127.56" height="233" as="geometry" />
        </mxCell>
        <mxCell id="L1bO6l6GJDHzd7G1M5hT-103" value="" style="rounded=0;whiteSpace=wrap;html=1;rotation=90;fillColor=#e1d5e7;strokeColor=#9673a6;" parent="1" vertex="1">
          <mxGeometry x="4794" y="2814.04" width="127.56" height="233" as="geometry" />
        </mxCell>
        <mxCell id="L1bO6l6GJDHzd7G1M5hT-104" value="" style="rounded=0;whiteSpace=wrap;html=1;rotation=90;fillColor=#e1d5e7;strokeColor=#9673a6;" parent="1" vertex="1">
          <mxGeometry x="5934" y="3594.04" width="127.56" height="233" as="geometry" />
        </mxCell>
        <mxCell id="L1bO6l6GJDHzd7G1M5hT-105" value="" style="rounded=0;whiteSpace=wrap;html=1;rotation=90;fillColor=#e1d5e7;strokeColor=#9673a6;" parent="1" vertex="1">
          <mxGeometry x="4794" y="3594.04" width="127.56" height="233" as="geometry" />
        </mxCell>
        <mxCell id="L1bO6l6GJDHzd7G1M5hT-106" value="" style="ellipse;whiteSpace=wrap;html=1;align=center;aspect=fixed;fillColor=none;strokeColor=none;resizable=0;perimeter=centerPerimeter;rotatable=0;allowArrows=0;points=[];outlineConnect=1;" parent="1" vertex="1">
          <mxGeometry x="5350" y="480.09000000000003" width="10" height="10" as="geometry" />
        </mxCell>
        <mxCell id="L1bO6l6GJDHzd7G1M5hT-107" value="" style="ellipse;whiteSpace=wrap;html=1;align=center;aspect=fixed;fillColor=none;strokeColor=none;resizable=0;perimeter=centerPerimeter;rotatable=0;allowArrows=0;points=[];outlineConnect=1;" parent="1" vertex="1">
          <mxGeometry x="5345" y="381.09" width="10" height="10" as="geometry" />
        </mxCell>
        <mxCell id="L1bO6l6GJDHzd7G1M5hT-108" value="" style="endArrow=none;dashed=1;html=1;rounded=0;strokeWidth=1;" parent="1" edge="1">
          <mxGeometry width="50" height="50" relative="1" as="geometry">
            <mxPoint x="4500" y="271" as="sourcePoint" />
            <mxPoint x="4979" y="271.38999999999993" as="targetPoint" />
          </mxGeometry>
        </mxCell>
        <mxCell id="L1bO6l6GJDHzd7G1M5hT-109" value="" style="endArrow=none;dashed=1;html=1;rounded=0;strokeWidth=1;spacingTop=-1;" parent="1" edge="1">
          <mxGeometry width="50" height="50" relative="1" as="geometry">
            <mxPoint x="4510" y="2107" as="sourcePoint" />
            <mxPoint x="4744" y="2107.05" as="targetPoint" />
          </mxGeometry>
        </mxCell>
        <mxCell id="L1bO6l6GJDHzd7G1M5hT-110" value="" style="endArrow=classic;startArrow=classic;html=1;rounded=0;" parent="1" edge="1">
          <mxGeometry width="50" height="50" relative="1" as="geometry">
            <mxPoint x="4417" y="2233" as="sourcePoint" />
            <mxPoint x="4407" y="143.16000000000003" as="targetPoint" />
          </mxGeometry>
        </mxCell>
        <mxCell id="L1bO6l6GJDHzd7G1M5hT-111" value="&lt;font style=&quot;font-size: 17px;&quot;&gt;&lt;i&gt;737 mm&lt;/i&gt;&lt;/font&gt;" style="edgeLabel;html=1;align=center;verticalAlign=middle;resizable=0;points=[];" parent="L1bO6l6GJDHzd7G1M5hT-110" vertex="1" connectable="0">
          <mxGeometry x="0.0781" y="-4" relative="1" as="geometry">
            <mxPoint as="offset" />
          </mxGeometry>
        </mxCell>
        <mxCell id="L1bO6l6GJDHzd7G1M5hT-112" value="&lt;font style=&quot;font-size: 17px;&quot;&gt;&lt;i&gt;46 mm&lt;/i&gt;&lt;/font&gt;" style="endArrow=classic;startArrow=classic;html=1;rounded=0;" parent="1" edge="1">
          <mxGeometry width="50" height="50" relative="1" as="geometry">
            <mxPoint x="4900" y="445" as="sourcePoint" />
            <mxPoint x="4900.55" y="272" as="targetPoint" />
          </mxGeometry>
        </mxCell>
        <mxCell id="L1bO6l6GJDHzd7G1M5hT-113" value="" style="endArrow=none;dashed=1;html=1;rounded=0;entryX=-0.013;entryY=0.955;entryDx=0;entryDy=0;entryPerimeter=0;" parent="1" edge="1">
          <mxGeometry width="50" height="50" relative="1" as="geometry">
            <mxPoint x="4680" y="447" as="sourcePoint" />
            <mxPoint x="5102.563877500001" y="447.3797500000005" as="targetPoint" />
          </mxGeometry>
        </mxCell>
        <mxCell id="L1bO6l6GJDHzd7G1M5hT-114" value="" style="endArrow=none;dashed=1;html=1;rounded=0;entryX=0;entryY=1;entryDx=0;entryDy=0;" parent="1" target="L1bO6l6GJDHzd7G1M5hT-86" edge="1">
          <mxGeometry width="50" height="50" relative="1" as="geometry">
            <mxPoint x="4390" y="143" as="sourcePoint" />
            <mxPoint x="4660" y="263" as="targetPoint" />
          </mxGeometry>
        </mxCell>
        <mxCell id="L1bO6l6GJDHzd7G1M5hT-115" value="" style="endArrow=none;dashed=1;html=1;rounded=0;fontSize=29;spacingTop=3;" parent="1" edge="1">
          <mxGeometry width="50" height="50" relative="1" as="geometry">
            <mxPoint x="4360" y="2233" as="sourcePoint" />
            <mxPoint x="4740" y="2233" as="targetPoint" />
          </mxGeometry>
        </mxCell>
        <mxCell id="L1bO6l6GJDHzd7G1M5hT-116" value="" style="endArrow=classic;startArrow=classic;html=1;rounded=0;" parent="1" edge="1">
          <mxGeometry width="50" height="50" relative="1" as="geometry">
            <mxPoint x="4520" y="2105.02" as="sourcePoint" />
            <mxPoint x="4510" y="273.02000000000004" as="targetPoint" />
          </mxGeometry>
        </mxCell>
        <mxCell id="L1bO6l6GJDHzd7G1M5hT-117" value="&lt;font style=&quot;font-size: 17px;&quot;&gt;&lt;i&gt;647 mm&lt;/i&gt;&lt;/font&gt;" style="edgeLabel;html=1;align=center;verticalAlign=middle;resizable=0;points=[];" parent="L1bO6l6GJDHzd7G1M5hT-116" vertex="1" connectable="0">
          <mxGeometry x="0.0954" y="10" relative="1" as="geometry">
            <mxPoint as="offset" />
          </mxGeometry>
        </mxCell>
        <mxCell id="L1bO6l6GJDHzd7G1M5hT-118" value="" style="endArrow=none;dashed=1;html=1;rounded=0;entryX=-0.013;entryY=0.955;entryDx=0;entryDy=0;entryPerimeter=0;" parent="1" edge="1">
          <mxGeometry width="50" height="50" relative="1" as="geometry">
            <mxPoint x="4680" y="533" as="sourcePoint" />
            <mxPoint x="5102.563877500001" y="533.3797500000005" as="targetPoint" />
          </mxGeometry>
        </mxCell>
        <mxCell id="L1bO6l6GJDHzd7G1M5hT-119" value="" style="endArrow=classic;html=1;rounded=0;" parent="1" edge="1">
          <mxGeometry width="50" height="50" relative="1" as="geometry">
            <mxPoint x="4757" y="563" as="sourcePoint" />
            <mxPoint x="4697" y="533" as="targetPoint" />
            <Array as="points">
              <mxPoint x="4697" y="563" />
            </Array>
          </mxGeometry>
        </mxCell>
        <mxCell id="L1bO6l6GJDHzd7G1M5hT-120" value="" style="endArrow=none;html=1;rounded=0;" parent="1" edge="1">
          <mxGeometry width="50" height="50" relative="1" as="geometry">
            <mxPoint x="4697" y="537.49" as="sourcePoint" />
            <mxPoint x="4697" y="442.47" as="targetPoint" />
          </mxGeometry>
        </mxCell>
        <mxCell id="L1bO6l6GJDHzd7G1M5hT-121" value="" style="endArrow=classic;html=1;rounded=0;" parent="1" edge="1">
          <mxGeometry width="50" height="50" relative="1" as="geometry">
            <mxPoint x="4697" y="426.81" as="sourcePoint" />
            <mxPoint x="4697" y="446.81" as="targetPoint" />
          </mxGeometry>
        </mxCell>
        <mxCell id="L1bO6l6GJDHzd7G1M5hT-122" value="" style="endArrow=classic;startArrow=classic;html=1;rounded=0;" parent="1" edge="1">
          <mxGeometry width="50" height="50" relative="1" as="geometry">
            <mxPoint x="4640" y="273" as="sourcePoint" />
            <mxPoint x="4640" y="143" as="targetPoint" />
          </mxGeometry>
        </mxCell>
        <mxCell id="L1bO6l6GJDHzd7G1M5hT-123" value="" style="endArrow=classic;html=1;rounded=0;" parent="1" edge="1">
          <mxGeometry width="50" height="50" relative="1" as="geometry">
            <mxPoint x="4640" y="290" as="sourcePoint" />
            <mxPoint x="4640" y="270" as="targetPoint" />
          </mxGeometry>
        </mxCell>
        <mxCell id="L1bO6l6GJDHzd7G1M5hT-124" value="" style="endArrow=classic;html=1;rounded=0;" parent="1" edge="1">
          <mxGeometry width="50" height="50" relative="1" as="geometry">
            <mxPoint x="4690" y="115" as="sourcePoint" />
            <mxPoint x="4640" y="144.92000000000002" as="targetPoint" />
            <Array as="points">
              <mxPoint x="4640" y="114.92000000000002" />
            </Array>
          </mxGeometry>
        </mxCell>
        <mxCell id="L1bO6l6GJDHzd7G1M5hT-125" value="&lt;i&gt;&lt;font style=&quot;font-size: 17px;&quot;&gt;30 mm&lt;/font&gt;&lt;/i&gt;" style="text;html=1;align=center;verticalAlign=middle;resizable=0;points=[];autosize=1;strokeColor=none;fillColor=none;" parent="1" vertex="1">
          <mxGeometry x="4685" y="558" width="80" height="30" as="geometry" />
        </mxCell>
        <mxCell id="L1bO6l6GJDHzd7G1M5hT-126" value="&lt;i&gt;&lt;font style=&quot;font-size: 17px;&quot;&gt;45 mm&lt;/font&gt;&lt;/i&gt;" style="text;html=1;align=center;verticalAlign=middle;resizable=0;points=[];autosize=1;strokeColor=none;fillColor=none;" parent="1" vertex="1">
          <mxGeometry x="4624" y="91" width="80" height="30" as="geometry" />
        </mxCell>
        <mxCell id="L1bO6l6GJDHzd7G1M5hT-127" value="" style="endArrow=none;dashed=1;html=1;rounded=0;" parent="1" edge="1">
          <mxGeometry width="50" height="50" relative="1" as="geometry">
            <mxPoint x="4740.38" y="2303.5699999999997" as="sourcePoint" />
            <mxPoint x="4740.38" y="2233.58" as="targetPoint" />
          </mxGeometry>
        </mxCell>
        <mxCell id="L1bO6l6GJDHzd7G1M5hT-128" value="" style="endArrow=none;dashed=1;html=1;rounded=0;" parent="1" edge="1">
          <mxGeometry width="50" height="50" relative="1" as="geometry">
            <mxPoint x="6115" y="2302.5699999999997" as="sourcePoint" />
            <mxPoint x="6115" y="2232.58" as="targetPoint" />
          </mxGeometry>
        </mxCell>
        <mxCell id="L1bO6l6GJDHzd7G1M5hT-129" value="" style="endArrow=classic;startArrow=classic;html=1;rounded=0;" parent="1" edge="1">
          <mxGeometry width="50" height="50" relative="1" as="geometry">
            <mxPoint x="4741.76" y="2292.58" as="sourcePoint" />
            <mxPoint x="6113.79" y="2293" as="targetPoint" />
          </mxGeometry>
        </mxCell>
        <mxCell id="L1bO6l6GJDHzd7G1M5hT-130" value="Text" style="edgeLabel;html=1;align=center;verticalAlign=middle;resizable=0;points=[];" parent="L1bO6l6GJDHzd7G1M5hT-129" vertex="1" connectable="0">
          <mxGeometry x="-0.0091" y="2" relative="1" as="geometry">
            <mxPoint as="offset" />
          </mxGeometry>
        </mxCell>
        <mxCell id="L1bO6l6GJDHzd7G1M5hT-131" value="&lt;i&gt;&lt;font style=&quot;font-size: 17px;&quot;&gt;484 mm&lt;/font&gt;&lt;/i&gt;" style="edgeLabel;html=1;align=center;verticalAlign=middle;resizable=0;points=[];" parent="L1bO6l6GJDHzd7G1M5hT-129" vertex="1" connectable="0">
          <mxGeometry x="-0.0065" y="2" relative="1" as="geometry">
            <mxPoint as="offset" />
          </mxGeometry>
        </mxCell>
        <mxCell id="L1bO6l6GJDHzd7G1M5hT-132" value="" style="endArrow=none;dashed=1;html=1;rounded=0;" parent="1" edge="1">
          <mxGeometry width="50" height="50" relative="1" as="geometry">
            <mxPoint x="7227.45" y="142.76000000000002" as="sourcePoint" />
            <mxPoint x="7227.5599999999995" y="112.76000000000002" as="targetPoint" />
          </mxGeometry>
        </mxCell>
        <mxCell id="L1bO6l6GJDHzd7G1M5hT-133" value="" style="endArrow=none;dashed=1;html=1;rounded=0;" parent="1" edge="1">
          <mxGeometry width="50" height="50" relative="1" as="geometry">
            <mxPoint x="7880" y="142.92000000000002" as="sourcePoint" />
            <mxPoint x="7880" y="114.92000000000003" as="targetPoint" />
          </mxGeometry>
        </mxCell>
        <mxCell id="L1bO6l6GJDHzd7G1M5hT-134" value="" style="endArrow=classic;startArrow=classic;html=1;rounded=0;" parent="1" edge="1">
          <mxGeometry width="50" height="50" relative="1" as="geometry">
            <mxPoint x="7227.3099999999995" y="126.16000000000003" as="sourcePoint" />
            <mxPoint x="7880" y="126" as="targetPoint" />
          </mxGeometry>
        </mxCell>
        <mxCell id="L1bO6l6GJDHzd7G1M5hT-135" value="&lt;font style=&quot;font-size: 17px;&quot;&gt;&lt;i&gt;230 mm&lt;/i&gt;&lt;/font&gt;" style="edgeLabel;html=1;align=center;verticalAlign=middle;resizable=0;points=[];" parent="L1bO6l6GJDHzd7G1M5hT-134" vertex="1" connectable="0">
          <mxGeometry x="0.0018" relative="1" as="geometry">
            <mxPoint as="offset" />
          </mxGeometry>
        </mxCell>
        <mxCell id="L1bO6l6GJDHzd7G1M5hT-136" value="" style="endArrow=none;dashed=1;html=1;rounded=0;" parent="1" edge="1">
          <mxGeometry width="50" height="50" relative="1" as="geometry">
            <mxPoint x="7100" y="143.16000000000003" as="sourcePoint" />
            <mxPoint x="7100.3099999999995" y="73.16000000000003" as="targetPoint" />
          </mxGeometry>
        </mxCell>
        <mxCell id="L1bO6l6GJDHzd7G1M5hT-137" value="&lt;font style=&quot;vertical-align: inherit;&quot;&gt;&lt;font style=&quot;vertical-align: inherit;&quot;&gt;32 mm&lt;/font&gt;&lt;/font&gt;" style="whiteSpace=wrap;html=1;strokeColor=none;" parent="1" vertex="1">
          <mxGeometry x="7200.3099999999995" y="63.160000000000025" width="50" height="20" as="geometry" />
        </mxCell>
        <mxCell id="L1bO6l6GJDHzd7G1M5hT-138" value="" style="endArrow=classic;startArrow=classic;html=1;rounded=0;" parent="1" edge="1">
          <mxGeometry width="50" height="50" relative="1" as="geometry">
            <mxPoint x="7100.3099999999995" y="83.16000000000003" as="sourcePoint" />
            <mxPoint x="8010" y="83" as="targetPoint" />
          </mxGeometry>
        </mxCell>
        <mxCell id="L1bO6l6GJDHzd7G1M5hT-139" value="" style="endArrow=none;dashed=1;html=1;rounded=0;" parent="1" edge="1">
          <mxGeometry width="50" height="50" relative="1" as="geometry">
            <mxPoint x="8006.99" y="141.00000000000003" as="sourcePoint" />
            <mxPoint x="8007.299999999999" y="71.00000000000003" as="targetPoint" />
          </mxGeometry>
        </mxCell>
        <mxCell id="L1bO6l6GJDHzd7G1M5hT-140" value="" style="endArrow=none;html=1;rounded=0;entryX=1;entryY=0;entryDx=0;entryDy=0;exitX=0;exitY=1;exitDx=0;exitDy=0;" parent="1" edge="1">
          <mxGeometry width="50" height="50" relative="1" as="geometry">
            <mxPoint x="5625" y="-605.4407499999998" as="sourcePoint" />
            <mxPoint x="5752.55925" y="-733" as="targetPoint" />
          </mxGeometry>
        </mxCell>
        <mxCell id="L1bO6l6GJDHzd7G1M5hT-141" value="" style="endArrow=none;html=1;rounded=0;entryX=1;entryY=0;entryDx=0;entryDy=0;exitX=0;exitY=1;exitDx=0;exitDy=0;" parent="1" edge="1">
          <mxGeometry width="50" height="50" relative="1" as="geometry">
            <mxPoint x="5230.11925" y="-1259" as="sourcePoint" />
            <mxPoint x="5102.5599999999995" y="-1131.4407499999998" as="targetPoint" />
          </mxGeometry>
        </mxCell>
        <mxCell id="L1bO6l6GJDHzd7G1M5hT-142" value="" style="endArrow=none;html=1;rounded=0;entryX=1;entryY=0;entryDx=0;entryDy=0;exitX=1;exitY=1;exitDx=0;exitDy=0;" parent="1" edge="1">
          <mxGeometry width="50" height="50" relative="1" as="geometry">
            <mxPoint x="5230.4400000000005" y="-606.03" as="sourcePoint" />
            <mxPoint x="5102.55925" y="-734.03" as="targetPoint" />
          </mxGeometry>
        </mxCell>
        <mxCell id="L1bO6l6GJDHzd7G1M5hT-143" value="" style="endArrow=none;html=1;rounded=0;entryX=1;entryY=0;entryDx=0;entryDy=0;exitX=1;exitY=1;exitDx=0;exitDy=0;" parent="1" edge="1">
          <mxGeometry width="50" height="50" relative="1" as="geometry">
            <mxPoint x="5753" y="-1130" as="sourcePoint" />
            <mxPoint x="5625.11925" y="-1258" as="targetPoint" />
          </mxGeometry>
        </mxCell>
        <mxCell id="L1bO6l6GJDHzd7G1M5hT-144" value="" style="endArrow=none;html=1;rounded=0;entryX=1;entryY=0;entryDx=0;entryDy=0;exitX=0;exitY=1;exitDx=0;exitDy=0;" parent="1" edge="1">
          <mxGeometry width="50" height="50" relative="1" as="geometry">
            <mxPoint x="5625.44" y="2106.5892500000004" as="sourcePoint" />
            <mxPoint x="5752.99925" y="1979.0300000000002" as="targetPoint" />
          </mxGeometry>
        </mxCell>
        <mxCell id="L1bO6l6GJDHzd7G1M5hT-145" value="" style="endArrow=none;html=1;rounded=0;entryX=1;entryY=0;entryDx=0;entryDy=0;exitX=1;exitY=1;exitDx=0;exitDy=0;" parent="1" edge="1">
          <mxGeometry width="50" height="50" relative="1" as="geometry">
            <mxPoint x="5230.88" y="2106" as="sourcePoint" />
            <mxPoint x="5102.99925" y="1978.0000000000002" as="targetPoint" />
          </mxGeometry>
        </mxCell>
        <mxCell id="L1bO6l6GJDHzd7G1M5hT-146" value="" style="endArrow=none;html=1;rounded=0;entryX=1;entryY=0;entryDx=0;entryDy=0;exitX=0;exitY=1;exitDx=0;exitDy=0;" parent="1" edge="1">
          <mxGeometry width="50" height="50" relative="1" as="geometry">
            <mxPoint x="5626" y="3645.5592500000002" as="sourcePoint" />
            <mxPoint x="5753.55925" y="3518" as="targetPoint" />
          </mxGeometry>
        </mxCell>
        <mxCell id="L1bO6l6GJDHzd7G1M5hT-147" value="" style="endArrow=none;html=1;rounded=0;entryX=1;entryY=0;entryDx=0;entryDy=0;exitX=0;exitY=1;exitDx=0;exitDy=0;" parent="1" edge="1">
          <mxGeometry width="50" height="50" relative="1" as="geometry">
            <mxPoint x="5229.11925" y="2995" as="sourcePoint" />
            <mxPoint x="5101.5599999999995" y="3122.5592500000002" as="targetPoint" />
          </mxGeometry>
        </mxCell>
        <mxCell id="L1bO6l6GJDHzd7G1M5hT-148" value="" style="endArrow=none;html=1;rounded=0;entryX=1;entryY=0;entryDx=0;entryDy=0;exitX=1;exitY=1;exitDx=0;exitDy=0;" parent="1" edge="1">
          <mxGeometry width="50" height="50" relative="1" as="geometry">
            <mxPoint x="5229.4400000000005" y="3645.9700000000003" as="sourcePoint" />
            <mxPoint x="5101.55925" y="3517.9700000000003" as="targetPoint" />
          </mxGeometry>
        </mxCell>
        <mxCell id="L1bO6l6GJDHzd7G1M5hT-149" value="" style="endArrow=none;html=1;rounded=0;entryX=1;entryY=0;entryDx=0;entryDy=0;exitX=1;exitY=1;exitDx=0;exitDy=0;" parent="1" edge="1">
          <mxGeometry width="50" height="50" relative="1" as="geometry">
            <mxPoint x="5754" y="3122" as="sourcePoint" />
            <mxPoint x="5626.11925" y="2994" as="targetPoint" />
          </mxGeometry>
        </mxCell>
        <mxCell id="L1bO6l6GJDHzd7G1M5hT-150" value="" style="endArrow=none;html=1;rounded=0;entryX=1;entryY=0;entryDx=0;entryDy=0;exitX=0;exitY=1;exitDx=0;exitDy=0;" parent="1" edge="1">
          <mxGeometry width="50" height="50" relative="1" as="geometry">
            <mxPoint x="5229.55925" y="270" as="sourcePoint" />
            <mxPoint x="5102" y="397.55925000000025" as="targetPoint" />
          </mxGeometry>
        </mxCell>
        <mxCell id="L1bO6l6GJDHzd7G1M5hT-151" value="" style="endArrow=none;html=1;rounded=0;entryX=1;entryY=0;entryDx=0;entryDy=0;exitX=1;exitY=1;exitDx=0;exitDy=0;" parent="1" edge="1">
          <mxGeometry width="50" height="50" relative="1" as="geometry">
            <mxPoint x="5753.4400000000005" y="398" as="sourcePoint" />
            <mxPoint x="5625.55925" y="270" as="targetPoint" />
          </mxGeometry>
        </mxCell>
        <mxCell id="L1bO6l6GJDHzd7G1M5hT-152" value="" style="endArrow=none;html=1;rounded=0;entryX=1;entryY=0;entryDx=0;entryDy=0;exitX=0;exitY=1;exitDx=0;exitDy=0;" parent="1" edge="1">
          <mxGeometry width="50" height="50" relative="1" as="geometry">
            <mxPoint x="7752.44" y="2103.58925" as="sourcePoint" />
            <mxPoint x="7879.99925" y="1976.03" as="targetPoint" />
          </mxGeometry>
        </mxCell>
        <mxCell id="L1bO6l6GJDHzd7G1M5hT-153" value="" style="endArrow=none;html=1;rounded=0;entryX=1;entryY=0;entryDx=0;entryDy=0;exitX=0;exitY=1;exitDx=0;exitDy=0;" parent="1" edge="1">
          <mxGeometry width="50" height="50" relative="1" as="geometry">
            <mxPoint x="7355.11925" y="270.45000000000005" as="sourcePoint" />
            <mxPoint x="7227.5599999999995" y="398.0092500000003" as="targetPoint" />
          </mxGeometry>
        </mxCell>
        <mxCell id="L1bO6l6GJDHzd7G1M5hT-154" value="" style="endArrow=none;html=1;rounded=0;entryX=1;entryY=0;entryDx=0;entryDy=0;exitX=1;exitY=1;exitDx=0;exitDy=0;" parent="1" edge="1">
          <mxGeometry width="50" height="50" relative="1" as="geometry">
            <mxPoint x="7355.88" y="2104" as="sourcePoint" />
            <mxPoint x="7227.99925" y="1976" as="targetPoint" />
          </mxGeometry>
        </mxCell>
        <mxCell id="L1bO6l6GJDHzd7G1M5hT-155" value="" style="endArrow=none;html=1;rounded=0;entryX=1;entryY=0;entryDx=0;entryDy=0;exitX=1;exitY=1;exitDx=0;exitDy=0;" parent="1" edge="1">
          <mxGeometry width="50" height="50" relative="1" as="geometry">
            <mxPoint x="7880" y="398.45000000000005" as="sourcePoint" />
            <mxPoint x="7752.11925" y="270.45000000000005" as="targetPoint" />
          </mxGeometry>
        </mxCell>
        <mxCell id="L1bO6l6GJDHzd7G1M5hT-156" value="" style="shape=flexArrow;endArrow=classic;startArrow=classic;html=1;rounded=0;exitX=0.065;exitY=0.329;exitDx=0;exitDy=0;exitPerimeter=0;" parent="1" edge="1">
          <mxGeometry width="100" height="100" relative="1" as="geometry">
            <mxPoint x="5389.9967845" y="456.9997500000002" as="sourcePoint" />
            <mxPoint x="5390.006926147635" y="380.7986491459688" as="targetPoint" />
          </mxGeometry>
        </mxCell>
        <mxCell id="L1bO6l6GJDHzd7G1M5hT-157" value="" style="ellipse;whiteSpace=wrap;html=1;" parent="1" vertex="1">
          <mxGeometry x="5328" y="367.53999999999996" width="122" height="37.09" as="geometry" />
        </mxCell>
        <mxCell id="L1bO6l6GJDHzd7G1M5hT-158" value="" style="shape=offPageConnector;whiteSpace=wrap;html=1;" parent="1" vertex="1">
          <mxGeometry x="5328" y="431" width="122" height="242" as="geometry" />
        </mxCell>
        <mxCell id="L1bO6l6GJDHzd7G1M5hT-159" value="" style="endArrow=none;html=1;rounded=0;" parent="1" edge="1">
          <mxGeometry width="50" height="50" relative="1" as="geometry">
            <mxPoint x="5370" y="404" as="sourcePoint" />
            <mxPoint x="5405" y="368.54" as="targetPoint" />
          </mxGeometry>
        </mxCell>
        <mxCell id="L1bO6l6GJDHzd7G1M5hT-160" value="" style="endArrow=none;html=1;rounded=0;" parent="1" edge="1">
          <mxGeometry width="50" height="50" relative="1" as="geometry">
            <mxPoint x="5391" y="383" as="sourcePoint" />
            <mxPoint x="5442" y="395.63" as="targetPoint" />
          </mxGeometry>
        </mxCell>
      </root>
    </mxGraphModel>
  </diagram>
  <diagram id="zDwb__aS1HieD3d-E2YY" name="Page-3">
    <mxGraphModel dx="4080" dy="4008" grid="0" gridSize="39.37" guides="1" tooltips="1" connect="1" arrows="1" fold="1" page="0" pageScale="1" pageWidth="827" pageHeight="1169" math="0" shadow="0">
      <root>
        <mxCell id="0" />
        <mxCell id="1" parent="0" />
        <mxCell id="mg1GiZLBvAT0n4lqK0CJ-1" value="" style="rounded=0;whiteSpace=wrap;html=1;fillColor=#f5f5f5;fontColor=#333333;strokeColor=#666666;fontSize=50;strokeWidth=5.1181;" parent="1" vertex="1">
          <mxGeometry x="2415" y="48" width="127.56" height="1834.01855" as="geometry" />
        </mxCell>
        <mxCell id="mg1GiZLBvAT0n4lqK0CJ-2" value="" style="rounded=0;whiteSpace=wrap;html=1;rotation=90;fillColor=#e1d5e7;strokeColor=#9673a6;fontSize=50;strokeWidth=5.1181;" parent="1" vertex="1">
          <mxGeometry x="2804" y="1260" width="127.56" height="1374.80525" as="geometry" />
        </mxCell>
        <mxCell id="mg1GiZLBvAT0n4lqK0CJ-3" value="" style="rounded=0;whiteSpace=wrap;html=1;rotation=90;fillColor=#fff2cc;strokeColor=#d6b656;fontSize=50;strokeWidth=5.1181;" parent="1" vertex="1">
          <mxGeometry x="2826" y="-58.999999999999986" width="85" height="651.9694999999999" as="geometry" />
        </mxCell>
        <mxCell id="mg1GiZLBvAT0n4lqK0CJ-20" value="" style="rounded=0;whiteSpace=wrap;html=1;rotation=90;fillColor=#e1d5e7;strokeColor=#9673a6;strokeWidth=5.1181;fontSize=50;" parent="1" vertex="1">
          <mxGeometry x="6042.43" y="1614.3300000000002" width="127.56" height="1374.80525" as="geometry" />
        </mxCell>
        <mxCell id="mg1GiZLBvAT0n4lqK0CJ-21" value="" style="rounded=0;whiteSpace=wrap;html=1;strokeWidth=5.1181;fontSize=50;" parent="1" vertex="1">
          <mxGeometry x="6431.43" y="1585.3300000000002" width="127.56" height="651.9694999999999" as="geometry" />
        </mxCell>
        <mxCell id="mg1GiZLBvAT0n4lqK0CJ-31" value="" style="rounded=0;whiteSpace=wrap;html=1;rotation=90;fillColor=#fd2b9b;strokeColor=#A50040;fontColor=#ffffff;fontSize=50;strokeWidth=5.1181;" parent="1" vertex="1">
          <mxGeometry x="2804" y="-470.00000000000006" width="127.56" height="907.088" as="geometry" />
        </mxCell>
        <mxCell id="mg1GiZLBvAT0n4lqK0CJ-80" value="" style="rounded=0;whiteSpace=wrap;html=1;fillColor=#f5f5f5;fontColor=#333333;strokeColor=#666666;fontSize=50;strokeWidth=5.1181;" parent="1" vertex="1">
          <mxGeometry x="3193" y="48" width="127.56" height="1834.01855" as="geometry" />
        </mxCell>
        <mxCell id="6uLOk1YYyFST_6--Y7ry-1" value="" style="rounded=0;whiteSpace=wrap;html=1;strokeWidth=5.1181;fontSize=50;" parent="1" vertex="1">
          <mxGeometry x="5653.43" y="1585.3300000000002" width="127.56" height="651.9694999999999" as="geometry" />
        </mxCell>
        <mxCell id="6uLOk1YYyFST_6--Y7ry-2" value="" style="rounded=0;whiteSpace=wrap;html=1;rotation=90;fillColor=#e1d5e7;strokeColor=#9673a6;strokeWidth=5.1181;fontSize=50;" parent="1" vertex="1">
          <mxGeometry x="6042.43" y="833.3300000000003" width="127.56" height="1374.80525" as="geometry" />
        </mxCell>
        <mxCell id="6uLOk1YYyFST_6--Y7ry-3" value="" style="rounded=0;whiteSpace=wrap;html=1;rotation=90;fontSize=50;strokeWidth=5.1181;" parent="1" vertex="1">
          <mxGeometry x="4290" y="-342.44" width="127.56" height="651.9694999999999" as="geometry" />
        </mxCell>
        <mxCell id="6uLOk1YYyFST_6--Y7ry-4" value="" style="rounded=0;whiteSpace=wrap;html=1;fillColor=#f5f5f5;fontColor=#333333;strokeColor=#666666;fontSize=50;strokeWidth=5.1181;" parent="1" vertex="1">
          <mxGeometry x="3900" y="47" width="127.56" height="1834.01855" as="geometry" />
        </mxCell>
        <mxCell id="6uLOk1YYyFST_6--Y7ry-5" value="" style="rounded=0;whiteSpace=wrap;html=1;fillColor=#f5f5f5;fontColor=#333333;strokeColor=#666666;fontSize=50;strokeWidth=5.1181;" parent="1" vertex="1">
          <mxGeometry x="4680" y="47" width="127.56" height="1834.01855" as="geometry" />
        </mxCell>
        <mxCell id="6uLOk1YYyFST_6--Y7ry-6" value="" style="rounded=0;whiteSpace=wrap;html=1;rotation=90;fontSize=50;strokeWidth=5.1181;" parent="1" vertex="1">
          <mxGeometry x="4290" y="1619" width="127.56" height="651.9694999999999" as="geometry" />
        </mxCell>
        <mxCell id="6uLOk1YYyFST_6--Y7ry-7" value="" style="rounded=0;whiteSpace=wrap;html=1;rotation=90;fillColor=#f2369a;strokeColor=#A50040;fontColor=#ffffff;fontSize=50;strokeWidth=5.1181;" parent="1" vertex="1">
          <mxGeometry x="4680" y="-80.2399999999999" width="127.56" height="127.56" as="geometry" />
        </mxCell>
        <mxCell id="6uLOk1YYyFST_6--Y7ry-8" value="" style="rounded=0;whiteSpace=wrap;html=1;rotation=90;fillColor=#f2369a;strokeColor=#A50040;fontColor=#ffffff;fontSize=50;strokeWidth=5.1181;" parent="1" vertex="1">
          <mxGeometry x="3900" y="-80.2399999999999" width="127.56" height="127.56" as="geometry" />
        </mxCell>
        <mxCell id="6uLOk1YYyFST_6--Y7ry-11" value="" style="rounded=0;whiteSpace=wrap;html=1;rotation=90;fillColor=#f2369a;strokeColor=#A50040;fontColor=#ffffff;fontSize=50;strokeWidth=5.1181;" parent="1" vertex="1">
          <mxGeometry x="4680" y="1881.02" width="127.56" height="127.56" as="geometry" />
        </mxCell>
        <mxCell id="6uLOk1YYyFST_6--Y7ry-12" value="" style="rounded=0;whiteSpace=wrap;html=1;rotation=90;fillColor=#f2369a;strokeColor=#A50040;fontColor=#ffffff;fontSize=50;strokeWidth=5.1181;" parent="1" vertex="1">
          <mxGeometry x="3900" y="1881.02" width="127.56" height="127.56" as="geometry" />
        </mxCell>
        <mxCell id="6uLOk1YYyFST_6--Y7ry-13" value="" style="rounded=0;whiteSpace=wrap;html=1;rotation=90;fillColor=#fd2b9b;strokeColor=#A50040;fontColor=#ffffff;fontSize=50;strokeWidth=5.1181;" parent="1" vertex="1">
          <mxGeometry x="6042.43" y="-580.95" width="127.56" height="907.088" as="geometry" />
        </mxCell>
        <mxCell id="6uLOk1YYyFST_6--Y7ry-14" value="" style="rounded=0;whiteSpace=wrap;html=1;rotation=90;fillColor=#fd2b9b;strokeColor=#A50040;fontColor=#ffffff;fontSize=50;strokeWidth=5.1181;" parent="1" vertex="1">
          <mxGeometry x="6042.43" y="198.04999999999995" width="127.56" height="907.088" as="geometry" />
        </mxCell>
        <mxCell id="6uLOk1YYyFST_6--Y7ry-16" value="" style="rounded=0;whiteSpace=wrap;html=1;fontSize=50;strokeWidth=5.1181;" parent="1" vertex="1">
          <mxGeometry x="6432.43" y="-63.950000000000045" width="127.56" height="651.9694999999999" as="geometry" />
        </mxCell>
        <mxCell id="6uLOk1YYyFST_6--Y7ry-17" value="" style="rounded=0;whiteSpace=wrap;html=1;fontSize=50;strokeWidth=5.1181;" parent="1" vertex="1">
          <mxGeometry x="5652.43" y="-63.950000000000045" width="127.56" height="651.9694999999999" as="geometry" />
        </mxCell>
        <mxCell id="TrEVWEuaJer6kbi9NBYn-3" value="" style="rounded=0;whiteSpace=wrap;html=1;rotation=90;fillColor=#e1d5e7;strokeColor=#9673a6;fontSize=50;strokeWidth=5.1181;" parent="1" vertex="1">
          <mxGeometry x="6612.43" y="-243.91000000000008" width="127.56" height="233" as="geometry" />
        </mxCell>
        <mxCell id="TrEVWEuaJer6kbi9NBYn-5" value="" style="rounded=0;whiteSpace=wrap;html=1;rotation=90;fillColor=#e1d5e7;strokeColor=#9673a6;fontSize=50;strokeWidth=5.1181;" parent="1" vertex="1">
          <mxGeometry x="5472.43" y="-243.91000000000008" width="127.56" height="233" as="geometry" />
        </mxCell>
        <mxCell id="TrEVWEuaJer6kbi9NBYn-6" value="" style="rounded=0;whiteSpace=wrap;html=1;rotation=90;fillColor=#e1d5e7;strokeColor=#9673a6;fontSize=50;strokeWidth=5.1181;" parent="1" vertex="1">
          <mxGeometry x="6612.43" y="536.0899999999999" width="127.56" height="233" as="geometry" />
        </mxCell>
        <mxCell id="TrEVWEuaJer6kbi9NBYn-7" value="" style="rounded=0;whiteSpace=wrap;html=1;rotation=90;fillColor=#e1d5e7;strokeColor=#9673a6;fontSize=50;strokeWidth=5.1181;" parent="1" vertex="1">
          <mxGeometry x="5472.43" y="536.0899999999999" width="127.56" height="233" as="geometry" />
        </mxCell>
        <mxCell id="1Kp4UNMVskeiwDrDVeHz-8" value="" style="ellipse;whiteSpace=wrap;html=1;align=center;aspect=fixed;fillColor=none;strokeColor=none;resizable=0;perimeter=centerPerimeter;rotatable=0;allowArrows=0;points=[];outlineConnect=1;fontSize=50;strokeWidth=5.1181;" parent="1" vertex="1">
          <mxGeometry x="2790" y="257.09000000000003" width="10" height="10" as="geometry" />
        </mxCell>
        <mxCell id="1Kp4UNMVskeiwDrDVeHz-9" value="" style="ellipse;whiteSpace=wrap;html=1;align=center;aspect=fixed;fillColor=none;strokeColor=none;resizable=0;perimeter=centerPerimeter;rotatable=0;allowArrows=0;points=[];outlineConnect=1;fontSize=50;strokeWidth=5.1181;" parent="1" vertex="1">
          <mxGeometry x="2785" y="158.08999999999997" width="10" height="10" as="geometry" />
        </mxCell>
        <mxCell id="1Kp4UNMVskeiwDrDVeHz-45" value="" style="endArrow=none;dashed=1;html=1;rounded=0;strokeWidth=5.1181;fontSize=50;" parent="1" edge="1">
          <mxGeometry width="50" height="50" relative="1" as="geometry">
            <mxPoint x="1940" y="48" as="sourcePoint" />
            <mxPoint x="2419" y="48.38999999999993" as="targetPoint" />
          </mxGeometry>
        </mxCell>
        <mxCell id="1Kp4UNMVskeiwDrDVeHz-46" value="" style="endArrow=none;dashed=1;html=1;rounded=0;strokeWidth=5.1181;spacingTop=-1;fontSize=50;" parent="1" edge="1">
          <mxGeometry width="50" height="50" relative="1" as="geometry">
            <mxPoint x="1950" y="1884" as="sourcePoint" />
            <mxPoint x="2184" y="1884.05" as="targetPoint" />
          </mxGeometry>
        </mxCell>
        <mxCell id="1Kp4UNMVskeiwDrDVeHz-50" value="" style="endArrow=block;startArrow=block;html=1;rounded=0;fontSize=50;strokeWidth=5.1181;endSize=29.1338;startSize=29.1338;startFill=1;endFill=1;" parent="1" edge="1">
          <mxGeometry width="50" height="50" relative="1" as="geometry">
            <mxPoint x="1785" y="2010" as="sourcePoint" />
            <mxPoint x="1775" y="-79.83999999999997" as="targetPoint" />
          </mxGeometry>
        </mxCell>
        <mxCell id="0r3dm57uytyOuCSbz23x-12" value="&lt;font style=&quot;font-size: 70px;&quot;&gt;&lt;i style=&quot;font-size: 70px;&quot;&gt;737 mm&lt;/i&gt;&lt;/font&gt;" style="edgeLabel;html=1;align=center;verticalAlign=middle;resizable=0;points=[];fontSize=70;" parent="1Kp4UNMVskeiwDrDVeHz-50" vertex="1" connectable="0">
          <mxGeometry x="0.0781" y="-4" relative="1" as="geometry">
            <mxPoint x="-6" y="-105" as="offset" />
          </mxGeometry>
        </mxCell>
        <mxCell id="1Kp4UNMVskeiwDrDVeHz-81" value="" style="endArrow=block;startArrow=block;html=1;rounded=0;fontSize=70;strokeWidth=5.1181;endSize=29.1338;startSize=29.1338;startFill=1;endFill=1;" parent="1" edge="1">
          <mxGeometry x="-0.2387" y="-105" width="50" height="50" relative="1" as="geometry">
            <mxPoint x="2089.26" y="222" as="sourcePoint" />
            <mxPoint x="2089.8100000000004" y="49" as="targetPoint" />
            <mxPoint as="offset" />
          </mxGeometry>
        </mxCell>
        <mxCell id="1Kp4UNMVskeiwDrDVeHz-84" value="" style="endArrow=none;dashed=1;html=1;rounded=0;entryX=-0.013;entryY=0.955;entryDx=0;entryDy=0;entryPerimeter=0;fontSize=50;strokeWidth=5.1181;" parent="1" edge="1">
          <mxGeometry width="50" height="50" relative="1" as="geometry">
            <mxPoint x="2047" y="224" as="sourcePoint" />
            <mxPoint x="2542.563877500001" y="224.3797500000005" as="targetPoint" />
          </mxGeometry>
        </mxCell>
        <mxCell id="fbUkuHNezPwLb59n_OlZ-1" value="" style="endArrow=none;dashed=1;html=1;rounded=0;entryX=0;entryY=1;entryDx=0;entryDy=0;fontSize=50;strokeWidth=5.1181;" parent="1" target="mg1GiZLBvAT0n4lqK0CJ-31" edge="1">
          <mxGeometry width="50" height="50" relative="1" as="geometry">
            <mxPoint x="1772" y="-80" as="sourcePoint" />
            <mxPoint x="2100" y="40" as="targetPoint" />
          </mxGeometry>
        </mxCell>
        <mxCell id="0r3dm57uytyOuCSbz23x-1" value="" style="endArrow=none;dashed=1;html=1;rounded=0;fontSize=50;spacingTop=3;strokeWidth=5.1181;" parent="1" edge="1">
          <mxGeometry width="50" height="50" relative="1" as="geometry">
            <mxPoint x="1732" y="2010" as="sourcePoint" />
            <mxPoint x="2180" y="2010" as="targetPoint" />
          </mxGeometry>
        </mxCell>
        <mxCell id="0r3dm57uytyOuCSbz23x-2" value="" style="endArrow=block;startArrow=block;html=1;rounded=0;fontSize=50;strokeWidth=5.1181;endSize=29.1338;startSize=29.1338;startFill=1;endFill=1;" parent="1" edge="1">
          <mxGeometry width="50" height="50" relative="1" as="geometry">
            <mxPoint x="1998" y="1882.02" as="sourcePoint" />
            <mxPoint x="1988" y="50.02000000000003" as="targetPoint" />
          </mxGeometry>
        </mxCell>
        <mxCell id="0r3dm57uytyOuCSbz23x-13" value="&lt;font style=&quot;font-size: 70px;&quot;&gt;&lt;i style=&quot;font-size: 70px;&quot;&gt;647 mm&lt;/i&gt;&lt;/font&gt;" style="edgeLabel;html=1;align=center;verticalAlign=middle;resizable=0;points=[];fontSize=70;" parent="0r3dm57uytyOuCSbz23x-2" vertex="1" connectable="0">
          <mxGeometry x="0.0954" y="10" relative="1" as="geometry">
            <mxPoint x="29" y="34" as="offset" />
          </mxGeometry>
        </mxCell>
        <mxCell id="0r3dm57uytyOuCSbz23x-3" value="" style="endArrow=none;dashed=1;html=1;rounded=0;entryX=-0.013;entryY=0.955;entryDx=0;entryDy=0;entryPerimeter=0;fontSize=50;strokeWidth=5.1181;" parent="1" edge="1">
          <mxGeometry width="50" height="50" relative="1" as="geometry">
            <mxPoint x="2047" y="315" as="sourcePoint" />
            <mxPoint x="2542.563877500001" y="310.3797500000005" as="targetPoint" />
          </mxGeometry>
        </mxCell>
        <mxCell id="0r3dm57uytyOuCSbz23x-8" value="" style="endArrow=block;startArrow=block;html=1;rounded=0;fontSize=50;strokeWidth=5.1181;endSize=29.1338;startSize=29.1338;startFill=1;endFill=1;" parent="1" edge="1">
          <mxGeometry width="50" height="50" relative="1" as="geometry">
            <mxPoint x="2080" y="50" as="sourcePoint" />
            <mxPoint x="2080" y="-79.99999999999999" as="targetPoint" />
          </mxGeometry>
        </mxCell>
        <mxCell id="0r3dm57uytyOuCSbz23x-10" value="" style="endArrow=classic;html=1;rounded=0;fontSize=50;" parent="1" edge="1">
          <mxGeometry width="50" height="50" relative="1" as="geometry">
            <mxPoint x="2130" y="-108" as="sourcePoint" />
            <mxPoint x="2080" y="-78.07999999999998" as="targetPoint" />
            <Array as="points">
              <mxPoint x="2080" y="-108.07999999999998" />
            </Array>
          </mxGeometry>
        </mxCell>
        <mxCell id="0r3dm57uytyOuCSbz23x-11" value="&lt;i style=&quot;font-size: 70px;&quot;&gt;&lt;font style=&quot;font-size: 70px;&quot;&gt;30 mm&lt;/font&gt;&lt;/i&gt;" style="text;html=1;align=center;verticalAlign=middle;resizable=0;points=[];autosize=1;strokeColor=none;fillColor=none;fontSize=70;" parent="1" vertex="1">
          <mxGeometry x="2100.0400000000004" y="208.03" width="236.21999999999997" height="118.10999999999999" as="geometry" />
        </mxCell>
        <mxCell id="0r3dm57uytyOuCSbz23x-14" value="&lt;i style=&quot;font-size: 70px;&quot;&gt;&lt;font style=&quot;font-size: 70px;&quot;&gt;45 mm&lt;/font&gt;&lt;/i&gt;" style="text;html=1;align=center;verticalAlign=middle;resizable=0;points=[];autosize=1;strokeColor=none;fillColor=none;fontSize=70;" parent="1" vertex="1">
          <mxGeometry x="2099" y="-79" width="236.21999999999997" height="118.10999999999999" as="geometry" />
        </mxCell>
        <mxCell id="0r3dm57uytyOuCSbz23x-15" value="" style="endArrow=none;dashed=1;html=1;rounded=0;fontSize=50;strokeWidth=7.0866;dashPattern=1 2;" parent="1" edge="1">
          <mxGeometry width="50" height="50" relative="1" as="geometry">
            <mxPoint x="2180.38" y="2080.5699999999997" as="sourcePoint" />
            <mxPoint x="2180.38" y="2010.58" as="targetPoint" />
          </mxGeometry>
        </mxCell>
        <mxCell id="0r3dm57uytyOuCSbz23x-16" value="" style="endArrow=none;dashed=1;html=1;rounded=0;fontSize=50;strokeWidth=7.0866;dashPattern=1 2;" parent="1" edge="1">
          <mxGeometry width="50" height="50" relative="1" as="geometry">
            <mxPoint x="3555" y="2079.5699999999997" as="sourcePoint" />
            <mxPoint x="3555" y="2009.58" as="targetPoint" />
          </mxGeometry>
        </mxCell>
        <mxCell id="0r3dm57uytyOuCSbz23x-18" value="" style="endArrow=block;startArrow=block;html=1;rounded=0;fontSize=50;strokeWidth=5.1181;endSize=29.1338;startSize=29.1338;startFill=1;endFill=1;" parent="1" edge="1">
          <mxGeometry width="50" height="50" relative="1" as="geometry">
            <mxPoint x="2181.76" y="2069.58" as="sourcePoint" />
            <mxPoint x="3553.79" y="2070" as="targetPoint" />
          </mxGeometry>
        </mxCell>
        <mxCell id="0r3dm57uytyOuCSbz23x-20" value="Text" style="edgeLabel;html=1;align=center;verticalAlign=middle;resizable=0;points=[];fontSize=50;" parent="0r3dm57uytyOuCSbz23x-18" vertex="1" connectable="0">
          <mxGeometry x="-0.0091" y="2" relative="1" as="geometry">
            <mxPoint as="offset" />
          </mxGeometry>
        </mxCell>
        <mxCell id="0r3dm57uytyOuCSbz23x-22" value="&lt;i style=&quot;font-size: 70px;&quot;&gt;&lt;font style=&quot;font-size: 70px;&quot;&gt;&amp;nbsp;484 mm&amp;nbsp;&lt;/font&gt;&lt;/i&gt;" style="edgeLabel;html=1;align=center;verticalAlign=middle;resizable=0;points=[];fontSize=70;" parent="0r3dm57uytyOuCSbz23x-18" vertex="1" connectable="0">
          <mxGeometry x="-0.0065" y="2" relative="1" as="geometry">
            <mxPoint as="offset" />
          </mxGeometry>
        </mxCell>
        <mxCell id="Bs7F__rKodOFq4LmJnS_-1" value="" style="endArrow=none;dashed=1;html=1;rounded=0;exitX=0.086;exitY=-0.007;exitDx=0;exitDy=0;exitPerimeter=0;fontSize=50;strokeWidth=5.1181;" parent="1" source="6uLOk1YYyFST_6--Y7ry-8" edge="1">
          <mxGeometry width="50" height="50" relative="1" as="geometry">
            <mxPoint x="4027.45" y="-125.60999999999996" as="sourcePoint" />
            <mxPoint x="4027.5599999999995" y="-155.60999999999996" as="targetPoint" />
          </mxGeometry>
        </mxCell>
        <mxCell id="Bs7F__rKodOFq4LmJnS_-2" value="" style="endArrow=none;dashed=1;html=1;rounded=0;fontSize=50;strokeWidth=5.1181;" parent="1" edge="1">
          <mxGeometry width="50" height="50" relative="1" as="geometry">
            <mxPoint x="4680" y="-80.07999999999997" as="sourcePoint" />
            <mxPoint x="4680" y="-157" as="targetPoint" />
          </mxGeometry>
        </mxCell>
        <mxCell id="Bs7F__rKodOFq4LmJnS_-4" value="" style="endArrow=classic;startArrow=classic;html=1;rounded=0;strokeWidth=3.1496;endSize=31.496;startSize=31.496;fontSize=50;" parent="1" edge="1">
          <mxGeometry width="50" height="50" relative="1" as="geometry">
            <mxPoint x="4027.3099999999995" y="-155.83999999999997" as="sourcePoint" />
            <mxPoint x="4680" y="-156" as="targetPoint" />
          </mxGeometry>
        </mxCell>
        <mxCell id="Bs7F__rKodOFq4LmJnS_-10" value="&lt;font style=&quot;font-size: 70px;&quot;&gt;&lt;i style=&quot;font-size: 70px;&quot;&gt;230 mm&lt;/i&gt;&lt;/font&gt;" style="edgeLabel;html=1;align=center;verticalAlign=middle;resizable=0;points=[];fontSize=70;" parent="Bs7F__rKodOFq4LmJnS_-4" vertex="1" connectable="0">
          <mxGeometry x="0.0018" relative="1" as="geometry">
            <mxPoint as="offset" />
          </mxGeometry>
        </mxCell>
        <mxCell id="Bs7F__rKodOFq4LmJnS_-5" value="" style="endArrow=none;dashed=1;html=1;rounded=0;fontSize=50;strokeWidth=5.1181;" parent="1" edge="1">
          <mxGeometry width="50" height="50" relative="1" as="geometry">
            <mxPoint x="3900" y="-79.83999999999997" as="sourcePoint" />
            <mxPoint x="3900" y="-283" as="targetPoint" />
          </mxGeometry>
        </mxCell>
        <mxCell id="Bs7F__rKodOFq4LmJnS_-7" value="" style="whiteSpace=wrap;html=1;strokeColor=none;fontSize=50;" parent="1" vertex="1">
          <mxGeometry x="4247.64" y="-237.22" width="212.28" height="20" as="geometry" />
        </mxCell>
        <mxCell id="Bs7F__rKodOFq4LmJnS_-9" value="" style="endArrow=none;dashed=1;html=1;rounded=0;fontSize=50;strokeWidth=5.1181;" parent="1" edge="1">
          <mxGeometry width="50" height="50" relative="1" as="geometry">
            <mxPoint x="4806.99" y="-81.99999999999997" as="sourcePoint" />
            <mxPoint x="4807" y="-293" as="targetPoint" />
          </mxGeometry>
        </mxCell>
        <mxCell id="Bs7F__rKodOFq4LmJnS_-14" value="" style="endArrow=none;html=1;rounded=0;entryX=1;entryY=0;entryDx=0;entryDy=0;exitX=0;exitY=1;exitDx=0;exitDy=0;strokeWidth=5.1181;fontSize=50;" parent="1" edge="1">
          <mxGeometry width="50" height="50" relative="1" as="geometry">
            <mxPoint x="6303.43" y="2237.8892500000006" as="sourcePoint" />
            <mxPoint x="6430.9892500000005" y="2110.3300000000004" as="targetPoint" />
          </mxGeometry>
        </mxCell>
        <mxCell id="Bs7F__rKodOFq4LmJnS_-15" value="" style="endArrow=none;html=1;rounded=0;entryX=1;entryY=0;entryDx=0;entryDy=0;exitX=0;exitY=1;exitDx=0;exitDy=0;strokeWidth=5.1181;fontSize=50;" parent="1" edge="1">
          <mxGeometry width="50" height="50" relative="1" as="geometry">
            <mxPoint x="5908.54925" y="1584.3300000000002" as="sourcePoint" />
            <mxPoint x="5780.99" y="1711.8892500000004" as="targetPoint" />
          </mxGeometry>
        </mxCell>
        <mxCell id="Bs7F__rKodOFq4LmJnS_-17" value="" style="endArrow=none;html=1;rounded=0;entryX=1;entryY=0;entryDx=0;entryDy=0;exitX=1;exitY=1;exitDx=0;exitDy=0;strokeWidth=5.1181;fontSize=50;" parent="1" edge="1">
          <mxGeometry width="50" height="50" relative="1" as="geometry">
            <mxPoint x="5908.870000000001" y="2237.3" as="sourcePoint" />
            <mxPoint x="5780.9892500000005" y="2109.3" as="targetPoint" />
          </mxGeometry>
        </mxCell>
        <mxCell id="Bs7F__rKodOFq4LmJnS_-18" value="" style="endArrow=none;html=1;rounded=0;entryX=1;entryY=0;entryDx=0;entryDy=0;exitX=1;exitY=1;exitDx=0;exitDy=0;strokeWidth=5.1181;fontSize=50;" parent="1" edge="1">
          <mxGeometry width="50" height="50" relative="1" as="geometry">
            <mxPoint x="6431.43" y="1713.3300000000002" as="sourcePoint" />
            <mxPoint x="6303.54925" y="1585.3300000000002" as="targetPoint" />
          </mxGeometry>
        </mxCell>
        <mxCell id="Bs7F__rKodOFq4LmJnS_-19" value="" style="endArrow=none;html=1;rounded=0;entryX=1;entryY=0;entryDx=0;entryDy=0;exitX=0;exitY=1;exitDx=0;exitDy=0;fontSize=50;strokeWidth=5.1181;" parent="1" edge="1">
          <mxGeometry width="50" height="50" relative="1" as="geometry">
            <mxPoint x="3065.4399999999996" y="1883.5892500000004" as="sourcePoint" />
            <mxPoint x="3192.99925" y="1756.0300000000002" as="targetPoint" />
          </mxGeometry>
        </mxCell>
        <mxCell id="Bs7F__rKodOFq4LmJnS_-20" value="" style="endArrow=none;html=1;rounded=0;entryX=1;entryY=0;entryDx=0;entryDy=0;exitX=1;exitY=1;exitDx=0;exitDy=0;fontSize=50;strokeWidth=5.1181;" parent="1" edge="1">
          <mxGeometry width="50" height="50" relative="1" as="geometry">
            <mxPoint x="2670.88" y="1883.0000000000002" as="sourcePoint" />
            <mxPoint x="2542.99925" y="1755.0000000000002" as="targetPoint" />
          </mxGeometry>
        </mxCell>
        <mxCell id="G00HzF7BfM2_BSWHecLZ-1" value="" style="endArrow=none;html=1;rounded=0;entryX=1;entryY=0;entryDx=0;entryDy=0;exitX=0;exitY=1;exitDx=0;exitDy=0;fontSize=50;strokeWidth=5.1181;" parent="1" edge="1">
          <mxGeometry width="50" height="50" relative="1" as="geometry">
            <mxPoint x="6304.43" y="587.6092500000002" as="sourcePoint" />
            <mxPoint x="6431.9892500000005" y="460.04999999999995" as="targetPoint" />
          </mxGeometry>
        </mxCell>
        <mxCell id="G00HzF7BfM2_BSWHecLZ-2" value="" style="endArrow=none;html=1;rounded=0;entryX=1;entryY=0;entryDx=0;entryDy=0;exitX=0;exitY=1;exitDx=0;exitDy=0;fontSize=50;strokeWidth=5.1181;" parent="1" edge="1">
          <mxGeometry width="50" height="50" relative="1" as="geometry">
            <mxPoint x="5907.54925" y="-62.950000000000045" as="sourcePoint" />
            <mxPoint x="5779.99" y="64.6092500000002" as="targetPoint" />
          </mxGeometry>
        </mxCell>
        <mxCell id="G00HzF7BfM2_BSWHecLZ-3" value="" style="endArrow=none;html=1;rounded=0;entryX=1;entryY=0;entryDx=0;entryDy=0;exitX=1;exitY=1;exitDx=0;exitDy=0;fontSize=50;strokeWidth=5.1181;" parent="1" edge="1">
          <mxGeometry width="50" height="50" relative="1" as="geometry">
            <mxPoint x="5907.870000000001" y="588.0200000000002" as="sourcePoint" />
            <mxPoint x="5779.9892500000005" y="460.0200000000002" as="targetPoint" />
          </mxGeometry>
        </mxCell>
        <mxCell id="G00HzF7BfM2_BSWHecLZ-4" value="" style="endArrow=none;html=1;rounded=0;entryX=1;entryY=0;entryDx=0;entryDy=0;exitX=1;exitY=1;exitDx=0;exitDy=0;fontSize=50;strokeWidth=5.1181;" parent="1" edge="1">
          <mxGeometry width="50" height="50" relative="1" as="geometry">
            <mxPoint x="6432.43" y="64.04999999999995" as="sourcePoint" />
            <mxPoint x="6304.54925" y="-63.950000000000045" as="targetPoint" />
          </mxGeometry>
        </mxCell>
        <mxCell id="G00HzF7BfM2_BSWHecLZ-5" value="" style="endArrow=none;html=1;rounded=0;entryX=1;entryY=0;entryDx=0;entryDy=0;exitX=0;exitY=1;exitDx=0;exitDy=0;fontSize=50;strokeWidth=5.1181;" parent="1" edge="1">
          <mxGeometry width="50" height="50" relative="1" as="geometry">
            <mxPoint x="2669.55925" y="47" as="sourcePoint" />
            <mxPoint x="2541.9999999999995" y="174.55925000000025" as="targetPoint" />
          </mxGeometry>
        </mxCell>
        <mxCell id="G00HzF7BfM2_BSWHecLZ-6" value="" style="endArrow=none;html=1;rounded=0;entryX=1;entryY=0;entryDx=0;entryDy=0;exitX=1;exitY=1;exitDx=0;exitDy=0;fontSize=50;strokeWidth=5.1181;" parent="1" edge="1">
          <mxGeometry width="50" height="50" relative="1" as="geometry">
            <mxPoint x="3193.44" y="175" as="sourcePoint" />
            <mxPoint x="3065.55925" y="47" as="targetPoint" />
          </mxGeometry>
        </mxCell>
        <mxCell id="G00HzF7BfM2_BSWHecLZ-7" value="" style="endArrow=none;html=1;rounded=0;entryX=1;entryY=0;entryDx=0;entryDy=0;exitX=0;exitY=1;exitDx=0;exitDy=0;fontSize=50;strokeWidth=5.1181;" parent="1" edge="1">
          <mxGeometry width="50" height="50" relative="1" as="geometry">
            <mxPoint x="4552.44" y="1880.5892500000002" as="sourcePoint" />
            <mxPoint x="4679.99925" y="1753.03" as="targetPoint" />
          </mxGeometry>
        </mxCell>
        <mxCell id="G00HzF7BfM2_BSWHecLZ-8" value="" style="endArrow=none;html=1;rounded=0;entryX=1;entryY=0;entryDx=0;entryDy=0;exitX=0;exitY=1;exitDx=0;exitDy=0;fontSize=50;strokeWidth=5.1181;" parent="1" edge="1">
          <mxGeometry width="50" height="50" relative="1" as="geometry">
            <mxPoint x="4155.11925" y="47.450000000000045" as="sourcePoint" />
            <mxPoint x="4027.5599999999995" y="175.0092500000003" as="targetPoint" />
          </mxGeometry>
        </mxCell>
        <mxCell id="G00HzF7BfM2_BSWHecLZ-9" value="" style="endArrow=none;html=1;rounded=0;entryX=1;entryY=0;entryDx=0;entryDy=0;exitX=1;exitY=1;exitDx=0;exitDy=0;fontSize=50;strokeWidth=5.1181;" parent="1" edge="1">
          <mxGeometry width="50" height="50" relative="1" as="geometry">
            <mxPoint x="4155.88" y="1881" as="sourcePoint" />
            <mxPoint x="4027.99925" y="1753" as="targetPoint" />
          </mxGeometry>
        </mxCell>
        <mxCell id="G00HzF7BfM2_BSWHecLZ-10" value="" style="endArrow=none;html=1;rounded=0;entryX=1;entryY=0;entryDx=0;entryDy=0;exitX=1;exitY=1;exitDx=0;exitDy=0;fontSize=50;strokeWidth=5.1181;" parent="1" edge="1">
          <mxGeometry width="50" height="50" relative="1" as="geometry">
            <mxPoint x="4680" y="175.45000000000005" as="sourcePoint" />
            <mxPoint x="4552.11925" y="47.450000000000045" as="targetPoint" />
          </mxGeometry>
        </mxCell>
        <mxCell id="JNKRY5ihOhAPa93GPVBm-1" value="" style="shape=flexArrow;endArrow=classic;startArrow=classic;html=1;rounded=0;exitX=0.065;exitY=0.329;exitDx=0;exitDy=0;exitPerimeter=0;fontSize=50;strokeWidth=5.1181;" parent="1" edge="1">
          <mxGeometry width="100" height="100" relative="1" as="geometry">
            <mxPoint x="2829.9967845" y="233.99975000000018" as="sourcePoint" />
            <mxPoint x="2830.0069261476347" y="157.7986491459688" as="targetPoint" />
          </mxGeometry>
        </mxCell>
        <mxCell id="JNKRY5ihOhAPa93GPVBm-2" value="" style="ellipse;whiteSpace=wrap;html=1;fontSize=50;strokeWidth=5.1181;" parent="1" vertex="1">
          <mxGeometry x="2768" y="144.54" width="122" height="37.09" as="geometry" />
        </mxCell>
        <mxCell id="JNKRY5ihOhAPa93GPVBm-3" value="" style="shape=offPageConnector;whiteSpace=wrap;html=1;fontSize=50;strokeWidth=5.1181;" parent="1" vertex="1">
          <mxGeometry x="2768" y="208" width="122" height="242" as="geometry" />
        </mxCell>
        <mxCell id="JNKRY5ihOhAPa93GPVBm-4" value="" style="endArrow=none;html=1;rounded=0;fontSize=50;strokeWidth=5.1181;" parent="1" edge="1">
          <mxGeometry width="50" height="50" relative="1" as="geometry">
            <mxPoint x="2810" y="181" as="sourcePoint" />
            <mxPoint x="2845" y="145.54000000000002" as="targetPoint" />
          </mxGeometry>
        </mxCell>
        <mxCell id="JNKRY5ihOhAPa93GPVBm-5" value="" style="endArrow=none;html=1;rounded=0;fontSize=50;strokeWidth=5.1181;" parent="1" edge="1">
          <mxGeometry width="50" height="50" relative="1" as="geometry">
            <mxPoint x="2831" y="160" as="sourcePoint" />
            <mxPoint x="2882" y="172.63" as="targetPoint" />
          </mxGeometry>
        </mxCell>
        <mxCell id="IgQogYLkx21k80DzEfSW-5" value="" style="endArrow=classic;startArrow=classic;html=1;rounded=0;fontSize=50;strokeWidth=3.937;endSize=31.496;startSize=31.496;" parent="1" edge="1">
          <mxGeometry width="50" height="50" relative="1" as="geometry">
            <mxPoint x="3898" y="-271.63" as="sourcePoint" />
            <mxPoint x="4803" y="-271.63" as="targetPoint" />
          </mxGeometry>
        </mxCell>
        <mxCell id="IgQogYLkx21k80DzEfSW-6" value="&lt;font style=&quot;font-size: 70px;&quot;&gt;&lt;i style=&quot;font-size: 70px;&quot;&gt;&amp;nbsp;320 mm&amp;nbsp;&lt;/i&gt;&lt;/font&gt;" style="edgeLabel;html=1;align=center;verticalAlign=middle;resizable=0;points=[];fontSize=70;" parent="IgQogYLkx21k80DzEfSW-5" vertex="1" connectable="0">
          <mxGeometry x="0.0018" relative="1" as="geometry">
            <mxPoint as="offset" />
          </mxGeometry>
        </mxCell>
        <mxCell id="v4gtJSbJsd5rOyHnK9cb-1" value="Top view" style="text;html=1;align=center;verticalAlign=middle;resizable=0;points=[];autosize=1;strokeColor=none;fillColor=none;fontSize=90;fontStyle=1" parent="1" vertex="1">
          <mxGeometry x="5879.5" y="-578.11" width="368" height="120" as="geometry" />
        </mxCell>
        <mxCell id="v4gtJSbJsd5rOyHnK9cb-2" value="Bottom view" style="text;html=1;align=center;verticalAlign=middle;resizable=0;points=[];autosize=1;strokeColor=none;fillColor=none;fontSize=90;fontStyle=1" parent="1" vertex="1">
          <mxGeometry x="5852.73" y="1219.47" width="508" height="120" as="geometry" />
        </mxCell>
        <mxCell id="v4gtJSbJsd5rOyHnK9cb-3" value="Side view" style="text;html=1;align=center;verticalAlign=middle;resizable=0;points=[];autosize=1;strokeColor=none;fillColor=none;fontSize=90;fontStyle=1" parent="1" vertex="1">
          <mxGeometry x="4152.299999999999" y="-578.11" width="403" height="120" as="geometry" />
        </mxCell>
        <mxCell id="v4gtJSbJsd5rOyHnK9cb-4" value="Front view" style="text;html=1;align=center;verticalAlign=middle;resizable=0;points=[];autosize=1;strokeColor=none;fillColor=none;fontSize=90;fontStyle=1" parent="1" vertex="1">
          <mxGeometry x="2651.2999999999997" y="-578.11" width="433" height="120" as="geometry" />
        </mxCell>
        <mxCell id="FiISorD67Qx3WfLEno2I-1" value="&lt;i style=&quot;font-size: 70px;&quot;&gt;&lt;font style=&quot;font-size: 70px;&quot;&gt;46 mm&lt;/font&gt;&lt;/i&gt;" style="text;html=1;align=center;verticalAlign=middle;resizable=0;points=[];autosize=1;strokeColor=none;fillColor=none;fontSize=70;" parent="1" vertex="1">
          <mxGeometry x="2099.04" y="79.94" width="236.21999999999997" height="118.10999999999999" as="geometry" />
        </mxCell>
        <mxCell id="FiISorD67Qx3WfLEno2I-2" value="" style="endArrow=block;startArrow=block;html=1;rounded=0;fontSize=70;strokeWidth=5.1181;endSize=23.2283;startSize=23.2283;startFill=1;endFill=1;" parent="1" edge="1">
          <mxGeometry x="-0.2387" y="-105" width="50" height="50" relative="1" as="geometry">
            <mxPoint x="2089.26" y="319" as="sourcePoint" />
            <mxPoint x="2089" y="227" as="targetPoint" />
            <mxPoint as="offset" />
          </mxGeometry>
        </mxCell>
      </root>
    </mxGraphModel>
  </diagram>
</mxfile>
